<svg id="Capa_1" data-name="Capa 1" xmlns="http://www.w3.org/2000/svg" viewBox="0 0 296.4 302.21"><defs><style>.cls-1{fill:#fff;}.cls-2{fill:#96c123;}</style></defs><rect class="cls-1" width="296.4" height="302.21"/><path class="cls-2" d="M136.46,136.56c-5.52,12.92-10.81,25.36-16.13,37.78-1.21,2.82,0,5.06,1.47,7.32,20.9,31.63,41.87,63.21,62.62,94.94,3.48,5.31,8.46,5.34,13.71,5.88,2.58.26,6.68-.71,7.08,3.14.38,3.58-3.67,3.85-6.12,5-6.37,3-12.25,1.08-17.45-2.77-21.52-15.91-45.12-28.54-67.33-43.35-5-3.33-7.86-3.33-11.61,1.87-9.89,13.74-20.43,27-30.63,40.52-1.53,2-4.52,3.93-3.58,6.61,1.07,3.06,4.59,1.36,7,1.85s4.74.49,7.11.76c1.52.18,2.93.78,3,2.5a3.05,3.05,0,0,1-3,3.32c-8.1.08-16.24.39-24.28-.29-5.19-.43-5.24-4.6-3.91-8.73,5-15.64,9.15-31.67,15.39-46.82,5.71-13.87,4.88-25.81-2.93-38.46-5.72-9.28-9.58-19.7-14.37-29.55-4.17-8.59-2.51-16.05,3.71-23Q96.9,109.42,137.5,63.66c2.13-2.39,4.48-4.13,9.68-3.53C137.91,51.58,134,42.6,134.4,31.65c.77-19.54,15.15-32,37.09-31.64,16,.24,30.17,16.25,30,34-.13,17.57-14.61,32.39-32.72,31.77-7.47-.25-10.05,2-10.54,8.66-.15,2.13-.76,4.29-.51,6.36,1.34,11.13,2.89,22.23,4.37,33.34.53,4,1.73,6.75,6.13,3.11,11.52-9.52,25.19-16.37,34.74-28.37,1.56-2,4-3.33,6.28-4.62,7.29-4.16,8.07-7,2.69-13.07-5-5.64-6.11-11.8-3.2-18.53,3-6.93,8.48-10.83,16.13-11.11,7.84-.28,13.91,3,17.62,10,5.79,10.91-1.14,24-13.87,25.5-5.47.62-8.26,2.82-9.23,7.93-.13.69-.56,1.81-.3,2,7.55,5.89.06,7.38-2.87,10.41s-3.17,7.37-4.87,11c-1,2.15-1,6.15-4.7,4.94s-1.36-4.34-.93-6.73c.17-.91.24-1.83.62-4.85-4.15,4.94-7.12,8.38-10,11.9-9.64,11.83-19.21,23.73-28.88,35.54-7.79,9.51-11.36,9.46-19,.14C145,145,141.63,140.37,136.46,136.56ZM168.12,60.3C184,60.53,195.58,49.48,195.7,34c.13-16-11.78-28.44-27.41-28.61-16.07-.18-27.92,11.49-28.12,27.69C140,49.74,150.55,60,168.12,60.3Zm70.66-.87c0-6.13-6.09-12-12.71-12.07s-12.74,5.48-12.88,11.74c-.15,6.64,5.95,12.52,12.94,12.49C232.62,71.55,238.73,65.68,238.78,59.43Z"/></svg>