<?xml version="1.0" encoding="UTF-8"?><svg id="a" xmlns="http://www.w3.org/2000/svg" viewBox="0 0 764.66 664.2"><defs><style>.b{fill:#fff;}</style></defs><path class="b" d="M382.39,664.19c-95.04,0-190.09,.01-285.13,0C40.23,664.17,.02,623.9,0,566.81c-.01-122.38-.01-244.76,0-367.14,0-57.13,40.18-97.37,97.21-97.39,32.39-.01,64.78-.24,97.16,.19,6.65,.09,9.24-2.13,10.99-8.15,3.26-11.21,7.06-22.28,11.11-33.23C229.99,24.48,263.75,.41,302.61,.21c53.09-.28,106.19-.28,159.29,0,38.99,.2,72.61,24.07,86.22,60.74,4.34,11.69,8.34,23.53,11.93,35.48,1.44,4.77,3.76,5.99,8.45,5.96,33.45-.19,66.9-.13,100.35-.09,54.99,.07,95.72,40.66,95.75,95.64,.07,123.44,.06,246.89,0,370.33-.03,55.08-40.66,95.87-95.5,95.91-95.57,.06-191.15,.02-286.72,.02Zm-.48-51.08c95.02,0,190.04,0,285.06,0,29.41,0,46.68-17.13,46.68-46.35,.02-122.35,.02-244.7,0-367.05,0-28.94-17.21-46.31-45.89-46.33-40.34-.04-80.69,.02-121.03-.03-15.05-.02-23.06-5.72-27.93-20.02-5.82-17.09-11.36-34.27-17.16-51.36-6.81-20.07-21.49-30.72-42.48-30.75-51.23-.06-102.45-.06-153.68,0-21.01,.02-35.69,10.68-42.48,30.74-5.7,16.85-11.16,33.78-16.85,50.63-5.12,15.17-12.97,20.75-29.03,20.76-39.81,.03-79.63,0-119.44,.02-29.78,.01-46.7,17.08-46.7,47.11,0,121.82,0,243.63,0,365.45,0,30.35,16.93,47.17,47.45,47.17,94.49,0,188.98,0,283.47,0Z"/><path class="b" d="M382.65,178.91c106.09,.42,191.33,86.7,190.81,193.13-.51,105.16-86.9,190.5-192.32,189.98-105.49-.52-190.41-86.85-189.98-193.12,.42-104.75,86.76-190.41,191.48-189.99Zm-.26,332.02c76.38,.19,139.7-62.72,140.09-139.18,.39-77.86-62.2-141.66-139.06-141.74-78.26-.09-141.01,62.26-141.25,140.34-.24,77.34,62.66,140.39,140.22,140.59Z"/><path class="b" d="M637.03,204.46c13.85-.08,25.44,11.3,25.62,25.16,.18,14.2-11.54,26-25.71,25.87-13.82-.13-25.24-11.72-25.21-25.58,.03-13.95,11.38-25.37,25.3-25.45Z"/></svg>