<?xml version="1.0" encoding="UTF-8"?><svg id="a" xmlns="http://www.w3.org/2000/svg" viewBox="0 0 368.01 368.65"><defs><style>.b{fill:#fff;}</style></defs><path class="b" d="M164.61,0c3.23,.74,6.49,1.37,9.69,2.23,6.92,1.86,13.33,4.88,18.53,9.85,33.91,32.38,61.82,69,78.96,113.13,8.81,22.66,13.62,46.08,13.66,70.51,.02,14.98,.29,30,1.53,44.9,.6,7.25,3.69,14.29,5.7,21.41,.15,.55,.54,1.09,.95,1.5,6.07,6.11,12.16,12.2,17.98,18.02,4.25-2.28,8.11-4.62,12.2-6.46,3.5-1.58,6.53-.19,7.64,2.9,1.08,3-.46,5.27-3.69,7.16-3.75,2.2-7.41,4.72-10.63,7.63-3.38,3.05-6.02,3.51-9.29,.26-6.79-6.75-13.5-13.59-19.93-20.07-5.19,5.17-10.15,10.12-15.35,15.31,5.22,5.23,10.88,10.89,16.54,16.55,1.02,1.02,2.04,2.03,3.04,3.06,3.73,3.82,3.82,5.85-.14,9.63-4.38,4.18-7.54,8.88-8.39,15.04-1.67,12.04,7.01,23.38,19.38,25.12,11.72,1.64,23.68-7.04,24.66-18.85,.63-7.64,1.04-10.16,10.66-10.61,8.4-.39,15.92-7.54,18.04-15.86,2.36-9.23-.23-17.08-7.35-23.33-4.29-3.77-5.33-6.73-2.89-9.51,2.32-2.64,5.71-2.27,9.78,1.15,5.89,4.94,9.69,11.16,11.38,18.68,.18,.79,.49,1.56,.73,2.34v9.36c-.18,.3-.46,.58-.53,.9-3.08,14.78-12.12,23.71-26.7,26.98-2.14,.48-2.17,1.67-2.52,3.17-2.86,12.06-10.01,20.39-21.66,24.71-1.98,.73-4.05,1.24-6.08,1.85h-9.34c-6.14-1.64-12.05-3.71-16.98-8.02-13.71-11.99-15.49-32.02-4.03-46.24,.37-.46,.73-.94,1.27-1.64-4.03-4.08-8.35-7.88-11.97-12.26-7.48-9.06-17.81-12.06-28.58-13.01-13.93-1.22-27.98-1.73-41.97-1.52-34.22,.53-65.99-8.43-96.28-23.64-33.68-16.92-62.61-40.17-88.71-67.13C1.62,182.48-1.28,166.72,.46,149.85c2.81-27.2,14.85-50.62,30.85-72.16C51.86,50.03,77.14,27.82,108.26,12.66c12.66-6.17,25.9-10.58,39.99-12.11,.44-.05,.85-.36,1.28-.55h15.09ZM44.66,210.06c.39,.25,.82,.46,1.17,.76,19.43,16.68,40.22,31.36,63.22,42.71,24.17,11.93,49.46,19.94,76.59,20.94,11.96,.44,23.94,.23,35.9,.61,13.28,.43,26.57,.95,39.17,6.03,.87,.35,2.57-.21,3.32-.93,5.27-5.07,10.33-10.34,15.58-15.43,1.44-1.4,1.4-2.55,.9-4.4-1.71-6.34-3.94-12.71-4.38-19.17-.98-14.7-1.25-29.46-1.37-44.21-.15-18.36-2.67-36.31-8.15-53.82-11.54-36.88-31.64-68.81-56.68-97.86-.17-.2-.55-.21-1.03-.38,1.18,16.19-2.07,31.47-8.1,46.14-16.35,39.75-43.75,70.36-79.15,93.93-23.09,15.38-48.06,25.73-76.99,25.05ZM10.87,157.1c0,1.2-.04,2.4,0,3.6,.79,18.56,10.68,31.87,27.31,36.17,4.36,1.13,8.98,1.7,13.48,1.71,15.38,.05,29.77-4.39,43.46-11,33.52-16.17,59.9-40.58,80.42-71.42,11.74-17.63,20.39-36.63,22.46-58.06,2.58-26.73-10.56-48.01-42.67-47.26-11.49,.27-22.55,3.03-33.07,7.5C79.41,36.56,47.65,67.06,25.22,107.54c-8.5,15.35-13.92,31.78-14.35,49.56Z"/><path class="b" d="M22.76,147.08c.29-11.83,5.56-25.5,12.55-38.62,1.62-3.05,4.58-3.93,7.28-2.54,2.68,1.38,3.61,4.29,2.25,7.42-2.34,5.37-5.02,10.61-7.1,16.08-3.13,8.24-4.84,16.78-4.03,25.71,1.09,12.03,8.9,19.71,20.95,20.61,9.28,.69,18.26-.93,26.65-4.57,42.13-18.25,72.46-48.45,89.9-91.08,2.66-6.5,3.85-13.92,4.16-20.99,.76-17.31-9.64-26.76-26.9-25.56-13.46,.93-25.55,5.96-37.09,12.48-19.75,11.16-36.39,25.99-50.61,43.6-.9,1.12-1.74,2.3-2.71,3.36-2.24,2.46-5.37,2.82-7.68,.95-2.32-1.88-2.75-5.05-.64-7.7,3.65-4.6,7.34-9.18,11.33-13.48,17.72-19.1,37.82-34.95,62.34-44.43,11.86-4.59,24.11-7.19,36.89-4.62,14.8,2.97,24.69,14.45,25.89,29.62,1.08,13.67-2.11,26.55-8,38.63-20.2,41.47-51.04,71.97-93.92,89.64-8.57,3.53-17.62,5.4-26.97,5.13-21.95-.64-34.95-14.31-34.57-39.64Z"/><path class="b" d="M159.03,66.34c-.35,8.09-4.89,16.02-11.05,23.08-6.97,8-15.02,14.52-26.03,15.89-9.9,1.23-17.01-5.4-16.76-15.36,.43-17.08,20.18-38.65,37.02-40.43,10.18-1.08,16.9,4.99,16.82,16.82Zm-10.84-.26c.13-4.62-1.34-6.19-5.13-5.64-2.19,.32-4.42,1.09-6.38,2.13-8.26,4.42-14.38,11-18.37,19.45-1.15,2.44-1.87,5.19-2.22,7.88-.48,3.61,1.27,5.1,4.88,4.66,1.17-.14,2.37-.41,3.45-.87,11.13-4.73,18.74-12.87,22.99-24.17,.5-1.32,.64-2.78,.79-3.44Z"/></svg>