<svg id="Capa_1" data-name="Capa 1" xmlns="http://www.w3.org/2000/svg" viewBox="0 0 296.4 302.21"><defs><style>.cls-1{fill:#fefefe;}.cls-2{fill:#96c224;}.cls-3{fill:#bddaa4;}</style></defs><path class="cls-1" d="M59.5,272.67V133.47c2.39.68,2.91,4.32,5.61,3,10.57-5.15,22.09-8.42,31.45-16,2.74-2.21,3.52-5.1,3.39-8.42-.25-7-1.89-13.86-1.23-20.89a3.35,3.35,0,0,0-.44-1.91c-.58-1-1.13-2.27-2.5-2.06s-.92,1.54-1,2.44a78.27,78.27,0,0,1-3.1,14.62C89,112,84.27,118.48,76,119.32c-9.57,1-19,3.23-28.6,3.39-6.47.1-11,2.63-14.59,7.84C22.54,145.32,12.13,160,1.82,174.66c-.82,1.18-2.08,2.16-2,3.91,3.43.91,5.66-1.14,7.89-3.16Q21.77,162.74,35.85,150c1.6-1.44,3.14-3.26,5.48-.57a24.55,24.55,0,0,0-9,16.72c-2,15.48-3.36,31-6,46.44-3,17.51-4.34,35.32-6.27,53-.2,1.9-2.2,5,.39,5.59,2.08.44,2.06-3.25,2.68-5.16q11.85-36.24,23.56-72.54c.42-1.26.4-3.64,2.51-2.88s.45,2.5,0,3.71a60.77,60.77,0,0,0-3.29,29C48,240.38,55,256.13,59.5,272.67ZM192.86,170.2l-.21-1.32c-2.93,0-5.94-.44-8.77.08-8.66,1.6-15.4-1.58-20.68-8.08-8-9.8-15.66-19.82-23.44-29.77-.66-.85-1.9-1.83-.83-3,.83-.9,1.78,0,2.64.48.68.34,1.34,1.08,2.22.37-.86-5.91-2.74-6.91-10.08-7.24-5.46-.25-6.52,2.49-7.23,7.11-3,19.38-4.91,38.92-8.84,58.15-1.9,9.3-3.88,18.53-2.17,28.14,3.64,20.48,8.8,40.59,14.1,60.67l7.23,27.31a22.24,22.24,0,0,0,1.83-6.92c4-36.21,5.94-72.59,8.77-108.9,1-12.23-2.38-22.76-13.94-29.23-2.18-1.22-3.67-3-2.49-6.54,2.8,2.38,5.32,4.26,7.53,6.45,4.13,4.1,8,8.49,12.13,12.54,6.78,6.59,14.89,8.47,23.91,5.77C180.7,174.43,186.76,172.23,192.86,170.2ZM280.51,69c2.59-3,4.3-6.27,8-7s4.75-3.16,4.74-6.54c0-7.15-.14-14.3,0-21.45.21-8.18-.88-16.22-2.17-24.24-1.11-6.93-2.43-8-9.49-7.79C267.08,2.41,252.57,3.7,238.06,5c-3.74.33-5.39,2.75-5.42,6-.13,15.13-.24,30.27.11,45.4.14,6,2.52,7.76,8.71,7.57,8.78-.28,17.61-.29,26.3-1.36C273.67,61.87,278.3,62.06,280.51,69ZM166,1c-10.57,1.22-21.2.87-31.81,1.05-4.67.07-6.56,2.21-6.31,7,.19,3.64.76,7.26.84,10.9.22,9.46,1.48,18.87,1.16,28.36-.1,2.78.83,5.83,4.25,5.6,5.53-.37,7,2.2,6.57,7.11-.14,1.47,0,3.29,1.78,3.71,2.3.54,2.66-1.54,3.12-3.06,1.5-4.83,4.82-7.24,9.7-8.1,5.12-.91,10.26-.41,15.39-.67,7.52-.37,9.6-2.37,9.91-10,.1-2.48.37-5,.61-7.42q1.5-15.58,3.05-31.15c.19-1.9-.89-2.35-2.39-2.28C176.56,2.31,171.36.43,166,1ZM72,33.58h0c0-6.48,0-13,0-19.45,0-4-2-6.21-6.1-6.2C54.92,8,44,7.83,33,8.07c-6.58.14-10.69,4-12,10.47-2.1,10.33-.71,20.84-1.65,31.26-.51,5.7,3.27,9.43,7.92,8.6s7.23.65,9.39,4.4c1.4,2.41,2.86,2.32,4.12-.39a5.18,5.18,0,0,1,6.15-3.15c5.76,1.43,11.57.46,17.35.68,5.44.2,7.52-1.91,7.63-7.4C72.05,46.22,72,39.9,72,33.58ZM284.78,296.94c1.33-.82,1-1.76,1-2.49,1.06-27.08,2.17-54.16,3.07-81.24.24-7.14-.36-14.3-.21-21.44.09-4.17-1.45-4.17-4.62-2.87-5.83,2.4-11.74,4.59-17.66,6.75-6.73,2.45-8.82,5.4-8.85,12.65q-.15,40.9-.35,81.81c0,1.91-.3,4,2.54,5.19.55-7.49,2.15-14.56,3.65-21.65,4.66-21.92,8.38-43.83.41-65.85-.65-1.81-.18-3.63,2.57-4.15C272.49,234.74,278.62,265.74,284.78,296.94ZM44,78.84c-10.74.06-18.57,7.72-18.39,18A17.85,17.85,0,0,0,44,114.43c10.18-.1,18.88-8.38,18.91-18C63,86.56,54.61,78.78,44,78.84Zm93.81,5.63c-10-.16-17.84,7.15-17.91,16.79a17.31,17.31,0,0,0,17.38,17.47c9.47.12,17.72-7.87,17.76-17.21A17.17,17.17,0,0,0,137.84,84.47ZM262.65,118A16.11,16.11,0,0,0,278.83,102,16.35,16.35,0,0,0,262.5,85.42a16.09,16.09,0,0,0-16.05,16.69A15.81,15.81,0,0,0,262.65,118Zm-5,69.07c6.46-5.15,11.9-9.46,17.31-13.82,2.36-1.89,2.67-4.23,1.84-7.13-2.91-10.2-5.61-20.46-8.42-30.69a13.37,13.37,0,0,0-1.34-3.73,5.78,5.78,0,0,0-6.49-2.54c-2.13.45-2.89,2.07-2.89,4.09C257.64,150.82,257.64,168.36,257.64,187.11Zm19-45.38c-.64,8.23,1.3,15.93,3.61,23.54,1.25,4.12.52,7.23-3,10.09-6.65,5.44-12.28,12.17-20.44,15.69-1.92.82-3.12,3.32-2.45,4.95.8,1.93,3,.35,4.34-.22,11.48-4.77,22.9-9.68,34.37-14.47,2.82-1.18,4-2.77,2.37-5.74Q286,158.67,276.63,141.73ZM118.81,249c-3,9.39-4.36,34-2.6,44.19C125.78,283.71,127,265.91,118.81,249Zm108.6-82.27c7.12,0,14.23.05,21.34,0,2.89,0,4.8-1.35,4.59-4.58-.15-2.29-1.29-4.23-3.72-3.51C242.09,160.82,234,161.33,227.41,166.7Z" transform="translate(0.2 -0.9)"/><path class="cls-2" d="M59.5,272.67C55,256.13,48,240.38,45.84,223.3a60.77,60.77,0,0,1,3.29-29c.44-1.21,2.1-2.95,0-3.71s-2.09,1.62-2.51,2.88q-11.79,36.27-23.56,72.54c-.62,1.91-.6,5.6-2.68,5.16-2.59-.56-.59-3.69-.39-5.59,1.93-17.69,3.25-35.5,6.27-53,2.67-15.43,4-31,6-46.44a24.55,24.55,0,0,1,9-16.72c-2.34-2.69-3.88-.87-5.48.57Q21.77,162.74,7.69,175.41c-2.23,2-4.46,4.07-7.89,3.16-.06-1.75,1.2-2.73,2-3.91,10.31-14.7,20.72-29.34,30.94-44.11,3.61-5.21,8.12-7.74,14.59-7.84,9.6-.16,19-2.41,28.6-3.39,8.32-.84,13-7.31,15.69-15a78.27,78.27,0,0,0,3.1-14.62c.12-.9-.28-2.24,1-2.44s1.92,1.1,2.5,2.06a3.35,3.35,0,0,1,.44,1.91c-.66,7,1,13.92,1.23,20.89.13,3.32-.65,6.21-3.39,8.42-9.36,7.55-20.88,10.82-31.45,16-2.7,1.32-3.22-2.32-5.61-3Z" transform="translate(0.2 -0.9)"/><path class="cls-2" d="M192.86,170.2c-6.1,2-12.16,4.23-18.32,6.07-9,2.7-17.13.82-23.91-5.77-4.17-4.05-8-8.44-12.13-12.54-2.21-2.19-4.73-4.07-7.53-6.45-1.18,3.5.31,5.32,2.49,6.54,11.56,6.47,14.9,17,13.94,29.23-2.83,36.31-4.77,72.69-8.77,108.9a22.24,22.24,0,0,1-1.83,6.92l-7.23-27.31c-5.3-20.08-10.46-40.19-14.1-60.67-1.71-9.61.27-18.84,2.17-28.14,3.93-19.23,5.87-38.77,8.84-58.15.71-4.62,1.77-7.36,7.23-7.11,7.34.33,9.22,1.33,10.08,7.24-.88.71-1.54,0-2.22-.37-.86-.44-1.81-1.38-2.64-.48-1.07,1.17.17,2.15.83,3,7.78,9.95,15.48,20,23.44,29.77,5.28,6.5,12,9.68,20.68,8.08,2.83-.52,5.84-.08,8.77-.08Z" transform="translate(0.2 -0.9)"/><path class="cls-3" d="M280.51,69c-2.21-6.92-6.84-7.11-12.75-6.39-8.69,1.07-17.52,1.08-26.3,1.36-6.19.19-8.57-1.52-8.71-7.57-.35-15.13-.24-30.27-.11-45.4,0-3.23,1.68-5.65,5.42-6,14.51-1.3,29-2.59,43.59-3,7.06-.22,8.38.86,9.49,7.79,1.29,8,2.38,16.06,2.17,24.24-.18,7.15-.08,14.3,0,21.45,0,3.38-1.1,5.82-4.74,6.54S283.1,66,280.51,69Z" transform="translate(0.2 -0.9)"/><path class="cls-3" d="M166,1c5.35-.58,10.55,1.3,15.87,1,1.5-.07,2.58.38,2.39,2.28q-1.56,15.57-3.05,31.15c-.24,2.47-.51,4.94-.61,7.42-.31,7.6-2.39,9.6-9.91,10-5.13.26-10.27-.24-15.39.67-4.88.86-8.2,3.27-9.7,8.1-.46,1.52-.82,3.6-3.12,3.06-1.8-.42-1.92-2.24-1.78-3.71.47-4.91-1-7.48-6.57-7.11-3.42.23-4.35-2.82-4.25-5.6.32-9.49-.94-18.9-1.16-28.36-.08-3.64-.65-7.26-.84-10.9-.25-4.74,1.64-6.88,6.31-6.95C144.81,1.88,155.44,2.23,166,1Z" transform="translate(0.2 -0.9)"/><path class="cls-3" d="M72,33.58c0,6.32.1,12.64,0,19-.11,5.49-2.19,7.6-7.63,7.4-5.78-.22-11.59.75-17.35-.68a5.18,5.18,0,0,0-6.15,3.15c-1.26,2.71-2.72,2.8-4.12.39-2.16-3.75-4.77-5.21-9.39-4.4s-8.43-2.9-7.92-8.6c.94-10.42-.45-20.93,1.65-31.26,1.3-6.45,5.41-10.33,12-10.47C44,7.83,54.92,8,65.88,7.93,70,7.92,72,10.1,72,14.13c0,6.48,0,13,0,19.45Z" transform="translate(0.2 -0.9)"/><path class="cls-2" d="M284.78,296.94c-6.16-31.2-12.29-62.2-18.44-93.29-2.75.52-3.22,2.34-2.57,4.15,8,22,4.25,43.93-.41,65.85-1.5,7.09-3.1,14.16-3.65,21.65-2.84-1.19-2.54-3.28-2.54-5.19q.16-40.91.35-81.81c0-7.25,2.12-10.2,8.85-12.65,5.92-2.16,11.83-4.35,17.66-6.75,3.17-1.3,4.71-1.3,4.62,2.87-.15,7.14.45,14.3.21,21.44-.9,27.08-2,54.16-3.07,81.24C285.76,295.18,286.11,296.12,284.78,296.94Z" transform="translate(0.2 -0.9)"/><path class="cls-2" d="M44,78.84C54.61,78.78,63,86.56,63,96.44c0,9.61-8.73,17.89-18.91,18a17.85,17.85,0,0,1-18.4-17.61C25.46,86.56,33.29,78.9,44,78.84Z" transform="translate(0.2 -0.9)"/><path class="cls-2" d="M137.84,84.47a17.17,17.17,0,0,1,17.23,17c0,9.34-8.29,17.33-17.76,17.21a17.31,17.31,0,0,1-17.38-17.47C120,91.62,127.8,84.31,137.84,84.47Z" transform="translate(0.2 -0.9)"/><path class="cls-2" d="M262.65,118a15.81,15.81,0,0,1-16.2-15.93A16.09,16.09,0,0,1,262.5,85.42,16.35,16.35,0,0,1,278.83,102,16.11,16.11,0,0,1,262.65,118Z" transform="translate(0.2 -0.9)"/><path class="cls-2" d="M257.64,187.11c0-18.75,0-36.29,0-53.82,0-2,.76-3.64,2.89-4.09a5.78,5.78,0,0,1,6.49,2.54,13.37,13.37,0,0,1,1.34,3.73c2.81,10.23,5.51,20.49,8.42,30.69.83,2.9.52,5.24-1.84,7.13C269.54,177.65,264.1,182,257.64,187.11Z" transform="translate(0.2 -0.9)"/><path class="cls-2" d="M276.63,141.73q9.4,16.92,18.82,33.84c1.65,3,.45,4.56-2.37,5.74-11.47,4.79-22.89,9.7-34.37,14.47-1.38.57-3.54,2.15-4.34.22-.67-1.63.53-4.13,2.45-4.95,8.16-3.52,13.79-10.25,20.44-15.69,3.5-2.86,4.23-6,3-10.09C277.93,157.66,276,150,276.63,141.73Z" transform="translate(0.2 -0.9)"/><path class="cls-2" d="M118.81,249c8.15,16.94,7,34.74-2.6,44.19C114.45,283,115.82,258.36,118.81,249Z" transform="translate(0.2 -0.9)"/><path class="cls-2" d="M227.41,166.7c6.57-5.37,14.68-5.88,22.21-8.12,2.43-.72,3.57,1.22,3.72,3.51.21,3.23-1.7,4.55-4.59,4.58C241.64,166.75,234.53,166.7,227.41,166.7Z" transform="translate(0.2 -0.9)"/></svg>