<svg id="Capa_1" data-name="Capa 1" xmlns="http://www.w3.org/2000/svg" viewBox="0 0 269.35 221.17"><defs><style>.cls-1{fill:#97c224;}</style></defs><path class="cls-1" d="M111.16,214c-4.55-7.23-9.13-14.44-13.63-21.7-3.85-6.22-7.59-12.53-11.44-18.75-.66-1.07-1.51-2.91-2.89-2.18-2,1.08-.07,2.53.41,3.75a17.87,17.87,0,0,0,1.63,3.09c2.32,3.59,1.3,6.15-2.18,8.28-4.26,2.61-8.29,5.6-12.6,8.12a12.22,12.22,0,0,0-5.82,7.65c-4.47,15.16-9.09,30.27-13.67,45.4-.55,1.83-1.23,3.63-2.2,6.5-.81-23,1.34-44.78,1.63-66.56.27-20.66,1.49-41.28,2.53-61.9.07-1.41,1.06-3.22-.56-4.13-1.82-1-3,.76-4.3,1.7q-8.84,6.56-17.59,13.18c-2.35,1.78-4.49,2.48-5.84-1C21,126,17.38,116.55,13.33,106c5.68,3.66,8.5,8.44,11.87,12.56,2.78,3.39,4.7,3.32,8.2,1,9.63-6.48,18.53-14.08,29.3-18.9,4.68-2.09,7-6.93,9.65-11.19a285.57,285.57,0,0,1,24.2-34.29c-2.88,8-5.73,16-8.66,24-4.29,11.71-8.65,23.41-13,35.1a38,38,0,0,0-2.47,13.16c-.09,12.16-.91,24.29-1.93,36.41-.1,1.25-.9,2.9.48,3.7,1.72,1,2.63-.72,3.63-1.75q11-11.28,22-22.54c.9-.93,1.6-2.17,3.81-2.48q6,36.36,12,72.71Z" transform="translate(-13.33 -40.92)"/><path class="cls-1" d="M138,262.08c-.25-39.19-.92-78.16-1-117.14,0-6.63-.79-7.09-6.81-4.11-4.45,2.2-8.87,4.44-13.8,6.91v-40l.57-.21c1.82,5.38,3.86,10.69,5.39,16.15,1.27,4.57,3.84,5.8,8.19,4.56,5.76-1.65,11.57-3.1,17.33-4.74,7.46-2.11,14.77-2.24,21.82,1.45,5.76,3,10.44,1.67,14.61-3.15,3.13-3.61,6.64-6.89,10.27-10.63,1.8,2.73.31,4.71-.46,6.39-3.36,7.25-7,14.35-10.48,21.55-1.43,3-3.12,3.46-5.83,1.47-4.17-3-8.44-5.94-12.77-8.76-1.36-.89-2.65-2.93-4.75-1.17s-1.73,3.73-.82,5.88q3.85,9.21,7.64,18.45,12.36,30.26,24.67,60.53c2.7,6.64,2.26,7.73-3.36,12.23-5.46,4.37-10.8,8.88-16.24,13.26-1.23,1-2.16,2.59-4.63,2.44a76.61,76.61,0,0,1,8.13-14.12c2.5-3.67,2.86-6.85,1-11.08-5-11.26-9.36-22.77-14-34.17-.59-1.46-.48-3.63-2.83-3.47-2.59.17-3.64,2.19-4.14,4.38-1.83,7.94-3.47,15.93-5.31,23.87C146.37,226.58,142.18,244.33,138,262.08Z" transform="translate(-13.33 -40.92)"/><path class="cls-1" d="M272.88,49.38c1.14,2-.24,3.34-.93,4.75q-10.12,20.59-20.3,41.16c-.15.3-.19.7-.41.91-8.3,7.7-5.37,17-3.58,26.05,3.21,16.2,7.68,32,15.87,46.53a63,63,0,0,1,2.42,6c.39.87,1,1.93,2.22,1.36s1.25-1.68.8-2.93c-3.11-8.48-3.11-8.51,3.72-14.43,3-2.6,5.42-5.87,10-8.43C277.24,167,272.1,182.79,267,198.57c-2,0-2.07-1.64-2.68-2.67q-14-23.62-27.86-47.29c-.59-1-1.21-2-1.78-3s-1.33-1.71-2.38-1.19c-1.59.79-.65,2-.09,2.92,3.45,5.88,6.65,11.94,10.47,17.58,2.9,4.29,3.07,7.43-1,11.17s-7.66,8.31-11.32,12.62c-2.45,2.9-4.15,2.65-5.93-.68-2.75-5.15-3.33-10.79-3.86-16.39-2.62-27.39,1.78-54.07,8.44-80.5.65-2.58,1.3-5.16,2.17-7.67s2.43-4,5.17-3.91c1.66,0,3.19.24,2.14,2.57-.39.86-1.33,1.87-.12,2.59,1.6,1,2.39-.62,3.19-1.54,7.89-9,15.68-18.12,23.6-27.1C267.38,53.52,269.31,50.48,272.88,49.38Z" transform="translate(-13.33 -40.92)"/><path class="cls-1" d="M69.64,82C69.53,92.77,61,101.62,51,101.41c-9.72-.21-16.83-8.18-16.64-18.66s8.48-19.13,18.43-19.09S69.76,71.43,69.64,82Z" transform="translate(-13.33 -40.92)"/><path class="cls-1" d="M165.67,95.38a19.11,19.11,0,0,1-19,19.14A16.92,16.92,0,0,1,129.44,97c.11-10.26,9.1-19.34,19.11-19.32C158.28,77.71,165.7,85.38,165.67,95.38Z" transform="translate(-13.33 -40.92)"/><path class="cls-1" d="M229.75,57.14c.07-7.44,5.29-13.81,12.89-15.71a16.08,16.08,0,0,1,18.19,7.89c1.73,3.11,1.75,5.82-.85,8.58-4,4.23-7.8,8.61-11.55,13-2.14,2.53-4.46,3-7.51,1.82C234.44,70.35,229.69,63.88,229.75,57.14Z" transform="translate(-13.33 -40.92)"/><path class="cls-1" d="M186.65,51a5.5,5.5,0,0,1,4.84,1.55c11.35,8.42,22.64,16.92,34.06,25.26,2.52,1.84,3.37,3.58,2.28,6.7-1.69,4.83-2.85,9.85-4.54,15.84C210.87,83.58,199,67.59,186.65,51Z" transform="translate(-13.33 -40.92)"/><path class="cls-1" d="M260.85,154.72c-1.77-4.57-1.77-4.57,2.55-5.45C263.74,151.44,261.8,152.37,260.85,154.72Z" transform="translate(-13.33 -40.92)"/></svg>