<?xml version="1.0" encoding="UTF-8"?><svg id="a" xmlns="http://www.w3.org/2000/svg" viewBox="0 0 302.99 368.42"><defs><style>.b{fill:#fff;}</style></defs><path class="b" d="M218.17,0c.25,.22,.47,.52,.76,.66,8.94,4.43,9.74,13.9,1.52,19.67-9.96,6.98-19.05,14.88-26.93,24.16-13.88,16.36-23.27,35-28.35,55.84-.22,.91-.33,1.84-.63,3.55,4.24-2.04,7.86-4,11.64-5.57,8.69-3.6,17.22-7.99,26.26-10.3,19.37-4.94,36.94,.98,53,11.73,22.59,15.13,35.78,36.9,42.4,62.85,9.15,35.86,5.41,71.12-6.01,105.81-8.86,26.89-21.61,51.69-41.2,72.48-12.13,12.86-26.06,22.89-43.82,26.48-1.49,.3-2.96,.71-4.45,1.07h-12.93c-1.48-.36-2.96-.78-4.45-1.06-9.33-1.7-17.39-6.44-25.61-10.77-5.14-2.71-10.19-3.12-15.35-.29-9.73,5.33-19.62,10.26-30.72,12.12h-12.93c-6.9-2.19-14.12-3.68-20.63-6.7-16.48-7.66-28.99-20.28-39.33-34.9C13.3,288.44-.63,245.65,.02,198.52c.35-25.55,5.96-49.94,20.27-71.62,13.58-20.58,32.15-34.15,56.5-39.3,.58-.12,1.12-.37,2.05-.68-1.46-1.81-2.8-3.42-4.09-5.07-13.52-17.26-20.53-36.87-20.98-58.8-.16-7.86,4.33-12.54,12.12-12.22,38.54,1.6,66.86,19.66,85.26,53.53,.57,1.05,1.07,2.14,1.62,3.2,.09,.18,.31,.29,.58,.54,13.12-28.46,32.47-51.46,59.09-68.11h5.75ZM21.42,199.96c-.06,33.8,9.59,69.25,25.39,97.09,8.65,15.23,18.69,29.32,33.05,39.74,10.08,7.32,21.17,12.25,33.85,9.15,6.27-1.53,12.27-4.63,18.02-7.72,12.94-6.95,25.71-7.42,38.64-.23,2.4,1.34,4.9,2.5,7.3,3.84,11.53,6.42,23.24,6.53,35.09,.98,13.4-6.28,23.4-16.54,31.93-28.28,18.51-25.46,29.58-54.05,34.54-85.04,3.84-24.02,3.07-47.83-5.07-70.97-7.06-20.06-19.2-36.01-38.69-45.61-12.31-6.07-24.83-6.67-37.41-1.11-7.76,3.43-15.26,7.43-22.98,10.94-14.82,6.75-29.86,7.17-44.86,.71-7.79-3.35-15.37-7.18-23.06-10.77-14.23-6.64-28.18-6.08-41.99,1.42-12.1,6.57-21.54,15.85-28.61,27.58-11.49,19.09-14.9,40.19-15.15,58.28Zm117.05-104.26c-3.12-30.93-32.43-59.05-61.69-61.84,2.6,28.96,30.59,58.67,61.69,61.84Z"/></svg>