<?xml version="1.0" encoding="UTF-8"?><svg id="a" xmlns="http://www.w3.org/2000/svg" viewBox="0 0 286.67 369"><defs><style>.b{fill:#fff;}</style></defs><path class="b" d="M76.19,58.94c2.51,.02,5.03-.03,7.54-.03,3.23,0,6.46,0,9.7,0-3.23,0-6.46,0-9.7,0-2.51,0-5.03,.05-7.54,.03Z"/><path class="b" d="M23.11,358.52c0-.47,0-.94,0-1.41-8.35-.35-11.39-3.81-11.39-12.68,0-61.71,.05-123.42-.05-185.13-.02-12.75,2.61-24.73,8.58-35.99,2.13-4.02,4.11-8.11,6.6-13.06,3.08,1.87,5.91,3.36,8.5,5.19,12.06,8.47,24.31,8.47,36.31-.12,9.09-6.51,15.16-6.51,24.22-.03,12.02,8.61,24.24,8.66,36.29,.15,8.27-5.84,7.97-5.68,12.79,2.97,4.47,8.02,7.41,16.29,9.12,24.9,4.38,1.95,8.75,3.91,13.13,5.86-.98-10.35-3.87-20.24-8.62-29.68-10.13-20.13-19.92-40.45-30.66-60.25-4.25-7.84-3.45-15.59-3.63-23.57,6.71-1.15,7.82-2.48,7.83-9.08,0-6.24-.13-12.49,.05-18.72,.11-3.66-1.13-6.27-4.44-7.85H39.85c-3.31,1.58-4.55,4.19-4.44,7.85,.19,6.24,.05,12.48,.05,18.72,0,6.6,1.12,7.93,7.87,9.09,0,2.31-.19,4.71,.04,7.07,.59,5.94-1.09,11.16-3.82,16.44-10.41,20.12-20.52,40.4-30.69,60.64C3.05,131.35,.01,143.59,0,156.53c-.01,62.9-.01,125.8,.02,188.7,0,2.38,.08,4.84,.65,7.13,2.63,10.41,10.93,16.48,22.43,16.49,8.39,0,16.78,0,25.16-.02-4.97,0-9.95,0-14.92-.01-6.38,0-10.23-3.89-10.24-10.3ZM47.29,11.98H120.18v11.3H47.29V11.98Zm3.75,50.53c2.92-5.48,4.55-10.96,4.02-17.16-.27-3.19-.05-6.42-.05-9.83h57.57c0,2.84,.24,5.7-.05,8.5-.72,7.21,1.27,13.56,4.71,19.88,5.84,10.73,11.11,21.78,16.61,32.7,.52,1.04,.99,2.11,1.4,2.99-3.41,2.16-6.72,4.09-9.85,6.27-8.04,5.6-14.57,5.34-22.85-.11-4.11-2.71-8.74-5.12-13.48-6.29-8.78-2.18-16.85,.42-23.89,6.04-4.34,3.46-9.13,5.35-14.7,4.15-2.07-.44-4.16-1.21-5.97-2.28-4.1-2.44-8.03-5.16-12.21-7.9,6.15-12.19,12.21-24.69,18.74-36.95Z"/><path class="b" d="M117.23,359.44c-.06-.81-.19-1.57-.39-2.3-6.01,0-12.03,0-18.04,0-.2,.75-.34,1.53-.4,2.37-.39,5.45-3.96,9.07-9.29,9.28,17.98,0,35.96,.03,53.95,.21,1.17,.01,2.31-.07,3.43-.18-6.42,0-12.84,0-19.26,0-5.79,0-9.58-3.64-9.99-9.37Z"/><path class="b" d="M38.86,138.82c1.63-4.17,.51-7.45-2.77-8.78-3.42-1.39-6.96,.21-8.14,4.76-1.91,7.37-4.13,14.91-4.33,22.42-.4,15.21-.34,30.44-.27,45.66,.99-13.92,5.16-26.91,11.92-38.2,0-1.83,0-3.65,0-5.48-.01-7.05,1.02-13.82,3.59-20.38Z"/><path class="b" d="M73.68,58.88c.84,.03,1.67,.05,2.51,.06,2.51,.02,5.03-.03,7.54-.03,3.23,0,6.46,0,9.7,0,.24,0,.48,0,.72-.01,4.07-.3,6.42-2.39,6.51-5.76,.09-3.51-2.33-5.94-6.55-6.04-6.82-.15-13.65-.14-20.47,0-4.27,.08-6.73,2.42-6.71,5.9,.01,3.48,2.49,5.73,6.75,5.89Z"/><path class="b" d="M23.37,206.34c.03,5.46,.05,10.92,.05,16.38,0,22.19,0,44.39,.02,66.58-.03-22.19-.02-44.39-.02-66.58,0-5.46-.02-10.92-.05-16.38Z"/><path class="b" d="M277.37,293.37c-5.71-.41-9.59-4.29-9.54-9.53,.05-5.14,3.88-8.94,9.42-9.34,5.77-.41,9.36-4.16,9.38-9.98,.03-18.67,0-37.33,.03-56,0-3.09-1.14-5.62-3.54-7.38-1.63-1.19-3.59-1.93-5.46-2.77-36.81-16.41-73.63-32.81-110.43-49.22,.25,2.67,.39,5.36,.39,8.09,0,4.24,0,8.48,0,12.72,20.65,9.19,41.3,18.39,61.95,27.58,.67,.3,1.29,.68,2.56,1.37h-64.53c0,6.36,0,12.72-.01,19.08h100.07c.06,.83,.17,1.66,.17,2.5,.01,11.4-.05,22.79,.06,34.19,.02,2.02-.71,2.77-2.43,3.62-10.62,5.26-16.43,13.92-16.35,25.81,.08,11.89,6.01,20.44,16.67,25.63,1.2,.58,2.12,.93,2.11,2.63-.08,12.37-.05,24.75-.05,37.59-1.13,0-2.16,0-3.19,0-32.45,0-64.91,0-97.36,0-1.98,10.96-10.17,17.74-20.8,18.85,43.38,.01,86.77,.02,130.15,0,6.06,0,9.99-3.9,10-9.93,.04-18.57,.04-37.14,0-55.7-.01-5.6-3.71-9.41-9.26-9.8Z"/><path class="b" d="M48.27,368.83c13.46,.01,26.91,.01,40.37-.02,.16,0,.31-.01,.46-.02-13.61,0-27.22,.02-40.83,.04Z"/><path class="b" d="M167.28,349.97c-3.99,0-7.99,0-11.98,0-1.31,5.18-4.96,7.17-12.21,7.17-8.75,0-17.5,0-26.25,0,.2,.73,.33,1.5,.39,2.3,.41,5.73,4.2,9.37,9.99,9.37,6.42,0,12.84,0,19.26,0,10.62-1.11,18.82-7.89,20.8-18.85Z"/><path class="b" d="M156.02,164.65c0,.06,0,.11,0,.17,3.86,1.72,7.72,3.43,11.58,5.14,0-4.24,0-8.48,0-12.72,0-2.73-.13-5.43-.39-8.09-4.38-1.95-8.75-3.91-13.13-5.86,1.38,6.9,1.97,14,1.93,21.35Z"/><path class="b" d="M98.4,359.51c.06-.83,.2-1.62,.4-2.37-24.74,0-49.49,0-74.23,0-.51,0-.98-.01-1.46-.03,0,.47,0,.94,0,1.41,0,6.41,3.86,10.29,10.24,10.3,4.97,0,9.95,0,14.92,.01,13.61-.02,27.22-.04,40.83-.04,5.34-.21,8.9-3.83,9.29-9.28Z"/><path class="b" d="M155.84,217.99h11.73c0-6.36,0-12.72,.01-19.08h-11.69c-.02,6.36-.04,12.72-.05,19.08Z"/><path class="b" d="M133.6,348.09c-5.12-11-13.89-16.99-26-16.89-12.1,.1-20.72,6.22-25.8,17.26-.2,.44-.44,.88-.7,1.4H42.14V217.99h113.7c0-6.36,.03-12.72,.05-19.08H42.64c2.44-15.5,9.28-28.51,20.7-39.04,11.2-10.33,24.52-15.95,39.65-17.21,1.58-.13,3.37,.1,4.81,.74,16.08,7.13,32.16,14.28,48.23,21.43,0-.06,0-.11,0-.17,.04-7.35-.55-14.46-1.93-21.35-13.09-5.84-26.18-11.67-39.26-17.52-3.6-1.61-7.18-2.63-11.07-2.09-5.81,.81-11.74,1.27-17.37,2.79-22.25,5.98-40.12,19.84-51.12,38.21,.07,41.36,.04,82.72,.02,124.09,0,1.67-.08,3.37-.41,4.99-.58,2.87-2.69,4.32-5.43,4.36-2.75,.05-4.86-1.39-5.56-4.21-.37-1.49-.47-3.08-.47-4.62-.03-22.19-.02-44.39-.02-66.58,0-5.46-.02-10.92-.05-16.38,0-1.15-.01-2.31-.02-3.46-.15,2.15-.24,4.31-.24,6.5,0,23.97,0,47.94,0,71.92,0,25.27,0,50.54,0,75.81,.47,.02,.95,.03,1.46,.03,24.74,0,49.49,0,74.23,0,1.17-4.4,4.63-7.22,9.13-7.17,4.37,.05,7.77,2.88,8.91,7.17,8.75,0,17.5,0,26.25,0,7.24,0,10.9-1.99,12.21-7.17-6.01,0-12.01,0-18.02,0-1.56,0-2.77,.08-3.68-1.88Zm-98.33-9.76c-.07,4.36-2.26,6.78-5.78,6.84-3.66,.06-5.93-2.46-6.05-6.96-.02-.9-.04-1.8-.05-2.7-.02-2.7,.02-5.4,.02-8.1,0-3.36-.06-6.72,.01-10.08,.1-4.53,2.28-7.19,5.82-7.27,3.56-.08,5.96,2.56,6.02,7.03,.1,7.08,.11,14.16,0,21.24Z"/><path class="b" d="M23.37,206.34c.03,5.46,.05,10.92,.05,16.38,0,22.19,0,44.39,.02,66.58,0,1.54,.1,3.13,.47,4.62,.69,2.82,2.81,4.25,5.56,4.21,2.73-.05,4.84-1.49,5.43-4.36,.33-1.63,.41-3.33,.41-4.99,.02-41.36,.05-82.72-.02-124.09-6.76,11.29-10.93,24.28-11.92,38.2,0,1.15,.01,2.31,.02,3.46Z"/><path class="b" d="M29.25,310.07c-3.54,.08-5.72,2.74-5.82,7.27-.07,3.36-.01,6.72-.01,10.08,0,2.7-.04,5.4-.03,8.1,0,.9,.02,1.8,.05,2.7,.12,4.5,2.39,7.02,6.05,6.96,3.51-.06,5.71-2.48,5.78-6.84,.12-7.08,.11-14.16,0-21.24-.07-4.46-2.47-7.11-6.02-7.03Z"/><path class="b" d="M23.42,327.42c0-3.36-.06-6.72,.01-10.08-.07,3.36-.01,6.72-.01,10.08,0,2.7-.04,5.4-.02,8.1-.02-2.7,.03-5.4,.03-8.1Z"/><path class="b" d="M98.67,236.78c-20.94-.05-37.87,16.77-37.91,37.67-.04,20.75,16.78,37.69,37.51,37.78,20.66,.09,37.74-16.87,37.78-37.53,.04-20.84-16.75-37.87-37.37-37.92Zm-.31,56.59c-10.28-.02-18.7-8.4-18.78-18.68-.08-10.44,8.33-19.01,18.7-19.04,10.41-.04,18.9,8.4,18.94,18.82,.04,10.39-8.47,18.92-18.85,18.9Z"/><path class="b" d="M201.97,331.09c15.57-.07,28.16-12.73,28.19-28.34,.03-15.53-12.74-28.28-28.28-28.24-15.58,.04-28.2,12.73-28.18,28.33,.01,15.57,12.77,28.32,28.27,28.25Zm0-37.71c5.08,0,9.35,4.29,9.35,9.39,0,5.15-4.17,9.39-9.3,9.44-5.13,.05-9.4-4.11-9.49-9.24-.09-5.26,4.18-9.6,9.44-9.59Z"/></svg>