<?xml version="1.0" encoding="UTF-8"?><svg id="a" xmlns="http://www.w3.org/2000/svg" viewBox="0 0 328.94 366.48"><defs><style>.b{fill:#fff;}</style></defs><path class="b" d="M123.01,366.48c-6.3-2.62-13.26-4.27-18.77-8.05-15-10.29-19.94-25.39-18.1-43.1,1.39-13.37,5.48-25.81,12.55-37.53-2.67-1.61-5.39-3.01-7.84-4.78-10.16-7.32-16.38-17.13-18.03-29.64-.35-2.7-1.13-3.84-4.09-4.55-33.5-7.95-55.47-28.45-65.65-61.46-1.43-4.64-.2-7.58,3.14-8.5,3.47-.95,5.75,.86,7.18,5.52,9.14,29.64,28.89,47.85,59.15,54.17,6.29,1.31,13.14,1.66,19.48,.73,14.42-2.1,24.71-13.73,26.51-28.41,1.64-13.42-6.01-26.5-19.32-32.68-4.46,6.27-9.91,11.2-18.3,11.03-5.85-.12-10.46-2.87-14.3-7.08-8.77-9.63-6.72-21.14,5.47-30.8-3.71-12.22-19.45-21.43-33.08-19.35-16.39,2.5-27.06,14.2-28.28,31-.3,4.11-2.48,6.58-5.69,6.43-3.26-.15-5.11-2.67-5.04-6.88,.28-17.72,12.63-34.01,29.96-39.51,17.97-5.7,36.53,.44,47.63,16.12,2.93,4.14,5.18,8.81,7.44,13.39,3.52,7.14,9.05,11.76,16.81,14.47,8.07-19.67,20.87-35.29,39.66-45.25,18.67-9.89,38.25-14.2,59.48-7.04,4.04-7.19,6.61-15.2,7.64-23.61,.65-5.29,1.15-10.79,.4-16.01-2.07-14.32-13.12-25.19-26.61-27.13-14.86-2.13-27.71,4.85-34.55,18.98,6.36,4.7,11.46,10.31,10.99,19.05-.3,5.58-3,9.95-6.98,13.63-9.64,8.9-19.65,7.12-31.03-5.5-15.48,6.54-23.14,24.05-17.49,40.05,.24,.67,.53,1.33,.78,2,1.45,3.9,.47,6.93-2.6,8.1-3.1,1.18-5.81-.29-7.41-4.25-4.51-11.13-4.58-22.33,.08-33.4,4.68-11.13,13.19-18.71,23.97-23.39,9.09-3.94,15-10.14,19.06-19.13,6.3-13.98,16.67-23.59,32.26-26.62,25.37-4.93,50.25,15.12,50.72,40.97,.25,13.83-2.71,26.96-8.7,39.42-.45,.94-.91,1.89-1.41,2.9,12.19,10.93,17.35,24.34,15.2,40.91,3.35,.45,6.71,.84,10.05,1.37,41.45,6.57,72.65,43.3,72.54,85.37-.05,18.79-12.26,35.41-30.27,41.21-17.54,5.64-36.29-.6-47.38-16.08-2.75-3.84-4.72-8.24-7.04-12.39-1.08-1.93-2.12-3.88-3.1-5.66-2.68,5.66-5.29,11.05-7.75,16.51-.33,.73-.15,1.88,.16,2.69,6.92,18.12,1.74,41.12-21.22,53.7-1.88,1.03-3.79,2.02-5.76,2.84-7.31,3.03-11.98,8.44-15.56,15.46-3.11,6.08-6.91,11.98-11.33,17.18-5.7,6.71-13.49,10.41-22.22,11.91-.68,.12-1.32,.44-1.97,.67h-11.43Zm62.25-57.19c14.39-7.13,21.51-20.66,18.71-35.24-2.91-15.13-14.91-25.58-30.38-26.44-4.41-.25-6.77-2.35-6.55-5.84,.22-3.34,2.54-5.04,6.93-4.89,11.36,.39,20.96,4.83,28.95,12.83,.81,.81,1.23,2.02,1.82,3.05,.52-.24,1.03-.48,1.55-.71,.87-3.79,1.72-7.57,2.62-11.35,.66-2.78-.4-4.16-3.05-5.4-10.54-4.92-19.05-12.13-23.91-23.02-1.05-2.35-1.81-4.82-2.81-7.52-.81,1.37-1.46,2.48-2.12,3.6-12.34,20.73-33.73,27.82-55.93,18.43-1.83-.77-2.72-.35-3.94,.91-6.5,6.71-14.37,10.92-23.58,12.41-3.33,.54-6.73,.6-10.41,.91,2.05,12.71,8.54,21.52,19.99,26.69,1.78,.8,2.67,.14,3.88-1.12,3.46-3.6,6.94-7.24,10.76-10.43,9.65-8.04,20.66-13.53,32.85-16.58,3.46-.87,6.14,.64,6.96,3.74,.76,2.89-.79,5.4-4.05,6.52-.67,.23-1.37,.41-2.05,.61-22.94,6.86-39.33,21.26-48.87,43.2-5.06,11.63-7.64,23.9-5.29,36.62,2.53,13.68,14.67,24.18,28.7,25.41,13.7,1.2,27.06-6.85,31.98-19.27-12.87-12.1-14.27-22.94-4.21-32.4,9.75-9.17,20.7-7.38,31.45,5.31Zm50.17-57.66c7.13,14,19.26,20.74,34.02,18.89,12.84-1.61,24.25-11.6,26.63-24.91,1.17-6.52,.73-13.57-.27-20.18-5.2-34.42-36.51-61.8-71.34-62.7-1.21-.03-3,.83-3.58,1.83-4.73,8.04-11.31,14.06-19.43,18.45-3.13,1.7-6.46,3.04-9.52,4.86-1.14,.68-2.32,2.15-2.51,3.41-2.09,13.65,6.16,27.83,19.02,33.02,10.69-12.66,21.49-14.49,31.26-5.29,10.33,9.72,8.95,20.16-4.3,32.62Zm-39.73-77.83c15.16-7.71,22.21-22.04,18.49-37.12-3.69-14.96-16.84-24.97-32.58-24.78-30.21,.35-58.03,19.56-69.14,47.59-.92,2.33-.77,3.64,1.3,5.36,12.2,10.19,17.32,23.32,15.02,39.09-.64,4.38-2.18,8.64-3.31,12.95,16.12,8.15,36.8,.39,43.15-16.32-7.61-5.32-12.78-12.16-10.36-21.98,2-8.1,7.52-13.57,15.74-15.44,9.79-2.22,16.29,3.13,21.68,10.64Zm-51.27-105.64c-4.36,4.38-8.27,8.31-12.52,12.57,1.13,1.62,3.77,4.07,7.96,3.54,3.44-.43,7.41-4.39,8.12-7.72,.76-3.6-.91-6.7-3.56-8.39Zm87.62,172.24c1.79-1.32,4.28-3.96,3.59-8.19-.59-3.63-4.71-7.64-8.23-8.06-4.22-.5-6.79,2.01-7.88,3.57,4.26,4.31,8.16,8.26,12.52,12.68ZM88.27,164.82c-4.47-4.48-8.44-8.46-12.59-12.61-1.99,1.51-4.41,4.31-3.42,8.72,.75,3.35,4.59,6.94,7.92,7.44,4.25,.63,6.84-1.81,8.1-3.54Zm96.32,12.18c-1.33-1.67-3.97-4.42-8.42-3.39-3.77,.88-7.36,4.98-7.69,8.53-.32,3.43,1.6,6.42,3.62,7.46,4.31-4.35,8.21-8.29,12.48-12.6Zm-10.46,135.63c-1.32-1.86-4.07-4.26-8.45-3.43-3.23,.61-7.05,4.55-7.64,7.76-.67,3.63,1.04,6.68,3.57,8.24,4.21-4.23,8.12-8.15,12.53-12.57Z"/><path class="b" d="M278.77,0c4.37,1.43,8.93,2.43,13.04,4.41,3.8,1.83,7.28,4.47,10.59,7.14,3.32,2.67,3.61,5.83,1.37,8.36-2.18,2.46-5.35,2.31-8.49-.39-10.99-9.46-24.25-11.4-36.46-5.35-14.93,7.4-21.6,24.66-15.5,40.58,7.53-1.03,14.91-.9,20.74,5.19,3.87,4.03,5.3,9.02,5.18,14.41-.3,13.54-9.16,19.96-26.01,18.68-3.01,8.83-3.17,17.58,1.09,26.14,9.6,19.25,35.16,23.97,50.85,9.07,13.95-13.25,21.45-29.83,22.86-49.04,1.13-15.39-2.26-29.82-9.92-43.23-2.05-3.58-1.42-6.78,1.43-8.37,2.84-1.59,5.83-.4,7.92,3.15,19.74,33.51,13.5,78.27-14.66,105.18-13.4,12.81-34.13,15.48-50.3,6.48-16.65-9.26-25.02-27.26-21.23-46,.73-3.6,1.67-7.22,3.04-10.62,3.25-8.06,3.13-15.89-.08-23.97-3.96-9.97-5.48-20.35-2.26-30.79,5.17-16.73,16.65-26.73,33.73-30.33,.8-.17,1.57-.45,2.35-.69h10.72Zm-31.6,65.21v17.05c3.75,1.16,7.36,.33,9.48-2.27,2.26-2.77,2.58-8.32,.53-11.48-2.48-3.81-6.22-3.79-10.02-3.3Z"/></svg>