<?xml version="1.0" encoding="UTF-8"?><svg id="a" xmlns="http://www.w3.org/2000/svg" viewBox="0 0 301.19 371.2"><defs><style>.b{fill:#fff;}</style></defs><path class="b" d="M287.38,46.38c-9.16-.06-18.32-.25-27.47,.09-4.31,.16-5.29-1.32-5.16-5.36,.3-9.48,.21-18.98,.14-28.47-.06-8.36-4.37-12.62-12.55-12.63-11.32-.02-22.64,0-33.97,0-65.27,0-130.54,0-195.8,0C6.03,0,2.63,2.35,.78,7.83-.15,10.6,.01,13.42,.01,16.24,0,64.86,0,113.49,0,162.12H.05c0,49.13,0,98.26,0,147.38,0,11.77,3.36,15.1,15.2,15.15,8.66,.03,17.33,.28,25.97-.1,4.62-.2,5.63,1.57,5.52,5.73-.24,8.99-.14,17.98-.05,26.98,.09,10.32,3.64,13.92,13.82,13.92,75.59,.02,151.18,.02,226.77,0,10.4,0,13.9-3.46,13.9-13.67,.01-99.09,.01-198.18,0-297.26,0-10.21-3.58-13.8-13.81-13.86ZM27.11,302.57c-4.35,0-5.13-1.47-5.12-5.43,.13-45.14,.08-90.28,.08-135.42s.06-89.61-.09-134.42c-.01-4.14,1.05-5.28,5.23-5.27,66.78,.13,133.56,.13,200.34,0,4.01,0,5.34,.8,5.34,5.12-.13,90.11-.12,180.22-.02,270.34,0,3.84-.9,5.07-4.92,5.06-66.94-.12-133.89-.13-200.83,0Zm246.2,46.69c-66.28-.16-132.55-.15-198.83,0-4.49,0-6.18-1.02-5.78-5.7,.42-4.96,.27-9.99,.03-14.98-.15-3.12,.97-4.03,3.99-3.96,8.16,.17,16.32,.05,24.48,.05,46.79,0,93.59,0,140.38-.01,2.33,0,4.67-.03,6.98-.3,6.3-.76,9.22-3.6,10.06-9.81,.29-2.13,.22-4.32,.22-6.48,0-77.95,.04-155.9-.08-233.85,0-4.4,.88-6.31,5.68-5.86,4.79,.45,9.66,.31,14.47,.03,3.6-.21,4.5,1.21,4.47,4.59-.14,14.49-.06,28.98-.06,43.47,0,30.81,0,61.63,0,92.44,0,44.8-.08,89.61,.12,134.41,.02,4.91-1.39,5.99-6.12,5.97Z"/><path class="b" d="M140.53,208.11c18.61,.07,37.22,.08,55.83,0,7.23-.03,11.63-4.27,11.66-10.82,.03-6.64-4.2-10.83-11.46-10.94-9.47-.14-18.94-.03-28.41-.04-9.31,0-18.61-.09-27.92,.02-7.46,.09-12.11,4.42-12.12,10.98-.01,6.36,4.92,10.78,12.41,10.81Z"/><path class="b" d="M140.35,79.92c18.65,.15,37.3,.17,55.94,0,7.75-.07,11.9-4.37,11.72-11.25-.17-6.56-4.5-10.39-11.99-10.44-9.16-.06-18.32-.01-27.48-.01-9.33,0-18.65-.03-27.98,0-7.52,.03-12.22,4.12-12.45,10.72-.22,6.28,4.66,10.92,12.23,10.98Z"/><path class="b" d="M140.32,272.09c9.16,.11,18.32,.03,27.47,.03,9.32,0,18.65,.09,27.97-.02,7.87-.1,12.2-4,12.25-10.73,.05-6.71-4.4-11.02-12.01-11.06-18.65-.11-37.3-.12-55.95,0-7.42,.05-12.1,4.7-11.95,11.3,.13,6.2,4.89,10.39,12.21,10.47Z"/><path class="b" d="M195.9,122.29c-9.32-.1-18.64-.02-27.96-.02s-18.64-.06-27.96,.02c-7.18,.06-11.67,4.25-11.85,10.78-.16,5.89,4.48,10.8,11.32,10.89,18.97,.25,37.95,.28,56.92,.06,7.76-.09,11.85-4.51,11.66-11.37-.18-6.43-4.56-10.28-12.12-10.36Z"/><path class="b" d="M84.31,172.51c-4.05,3.93-8.17,7.82-11.93,12.02-2.57,2.87-4.06,3.19-6.68-.16-2.96-3.79-7.28-5.2-12.07-3.15-4.37,1.87-6.76,5.2-6.86,11.51-.06,1.54,.98,4.08,3.07,6.2,3.85,3.9,7.6,7.92,11.62,11.63,5.25,4.85,10.7,4.74,15.87-.3,7.6-7.43,15.1-14.97,22.54-22.57,4.61-4.71,4.69-11.22,.41-15.6-4.4-4.5-11.03-4.38-15.96,.41Z"/><path class="b" d="M96.83,233.84c-4.14-1.74-8.23-1.38-11.58,1.84-4.31,4.15-8.56,8.37-12.57,12.8-2.5,2.77-4.03,3.28-6.82,.03-4.31-5.03-11.1-5.22-15.56-1.19-4.49,4.06-4.85,10.68-.46,15.62,3.75,4.21,7.75,8.23,11.93,12.02,4.86,4.41,10.49,4.35,15.19-.22,7.63-7.41,15-15.07,22.49-22.62,2.62-2.64,3.54-5.92,3.63-9.53,.06-4.44-2.48-7.16-6.24-8.74Z"/><path class="b" d="M99.74,43.55c-4.69-4.14-9.96-4.18-14.77,.27-4.02,3.72-7.86,7.67-11.56,11.71-2.64,2.88-4.5,4.62-7.91,.44-2.98-3.65-7.51-4.92-12.23-2.73-4.12,1.91-6.4,5.15-6.46,9.79-.08,2.61,.57,5.08,2.35,6.93,4.37,4.56,8.71,9.17,13.43,13.34,3.93,3.47,9.23,3.56,13.25,.01,8.85-7.81,17.23-16.16,24.99-25.05,4.13-4.73,3.32-10.83-1.1-14.72Z"/><path class="b" d="M84.63,108.2c-4.29,4.19-8.51,8.45-12.55,12.88-2.19,2.4-3.41,3.31-5.79-.1-2.89-4.14-7.38-5.62-12.4-3.85-4.57,1.61-6.84,5.05-7.09,9.84-.07,2.61,.5,5.1,2.28,6.97,4.35,4.58,8.66,9.24,13.4,13.4,4.49,3.94,9.87,3.61,14.42-.75,7.93-7.6,15.71-15.38,23.33-23.29,4.34-4.5,4.16-11.17,.05-15.33-4.25-4.3-11.05-4.28-15.66,.22Z"/></svg>