<svg id="Capa_1" data-name="Capa 1" xmlns="http://www.w3.org/2000/svg" viewBox="0 0 924.2 200.98"><defs><style>.cls-1{fill:#95c11f;}.cls-2{fill:#9d9d9c;}</style></defs><path class="cls-1" d="M0,0H643.74V21.47H25.85v87H88.61v24.75H25.85v66.07H0Z"/><path class="cls-1" d="M113.57,122.8a75.36,75.36,0,0,1,6.11-30,81.68,81.68,0,0,1,16.86-25.18A79.29,79.29,0,0,1,161.4,50.42a77.4,77.4,0,0,1,60.8,0,81.37,81.37,0,0,1,25.18,17.17,79.89,79.89,0,0,1,17.07,25.18,77.61,77.61,0,0,1,0,60.37,77.91,77.91,0,0,1-17.18,25A80.75,80.75,0,0,1,222.09,195a79.61,79.61,0,0,1-60.69,0,79.1,79.1,0,0,1-24.86-16.64,77.91,77.91,0,0,1-16.86-24.87A76.89,76.89,0,0,1,113.57,122.8Zm25.29-.21A55.48,55.48,0,0,0,143,144.08a53.74,53.74,0,0,0,28.65,29.08,52.36,52.36,0,0,0,21,4.21,50.75,50.75,0,0,0,37.4-15.9,56.78,56.78,0,0,0,11.16-17.39,54.94,54.94,0,0,0,4.12-21.28,54.36,54.36,0,0,0-4.22-21.5,58.92,58.92,0,0,0-11.38-17.49A51.11,51.11,0,0,0,212.82,72,51.91,51.91,0,0,0,192,67.8a50.63,50.63,0,0,0-20.86,4.32,53.93,53.93,0,0,0-17,11.8,53.15,53.15,0,0,0-11.28,17.49A56.49,56.49,0,0,0,138.86,122.59Z"/><path class="cls-1" d="M293.74,122.8a75.35,75.35,0,0,1,6.1-30A81.85,81.85,0,0,1,316.7,67.59a79.33,79.33,0,0,1,24.87-17.17,77.4,77.4,0,0,1,60.8,0,81.44,81.44,0,0,1,25.17,17.17,79.89,79.89,0,0,1,17.07,25.18,77.61,77.61,0,0,1,0,60.37,78,78,0,0,1-17.17,25A80.91,80.91,0,0,1,402.25,195a79.59,79.59,0,0,1-60.68,0,79.14,79.14,0,0,1-24.87-16.64,78.08,78.08,0,0,1-16.86-24.87A76.88,76.88,0,0,1,293.74,122.8Zm25.28-.21a55.66,55.66,0,0,0,4.11,21.49,53.72,53.72,0,0,0,28.66,29.08,52.31,52.31,0,0,0,21,4.21,50.75,50.75,0,0,0,37.4-15.9,56.59,56.59,0,0,0,11.16-17.39,56.95,56.95,0,0,0-.1-42.78,58.72,58.72,0,0,0-11.38-17.49A51.07,51.07,0,0,0,393,72a52,52,0,0,0-20.87-4.21,50.63,50.63,0,0,0-20.86,4.32,54.16,54.16,0,0,0-17,11.8A53,53,0,0,0,323,101.41,56.3,56.3,0,0,0,319,122.59Z"/><path class="cls-1" d="M483.38,199.29V45.89H527q22.75,0,38.88,7T591.8,71.17a74.46,74.46,0,0,1,14.43,25.39,89.19,89.19,0,0,1,4.64,28.13q0,17.3-6.12,31a71.51,71.51,0,0,1-16.64,23.5,72.69,72.69,0,0,1-24.45,15,82.62,82.62,0,0,1-29.07,5.16ZM508,175.69h21.71a70,70,0,0,0,22.65-3.48A49.83,49.83,0,0,0,570,162.1a45.28,45.28,0,0,0,11.49-16.44A58.16,58.16,0,0,0,585.58,123q0-14.33-4.74-24.55a47.29,47.29,0,0,0-12.43-16.65,50.61,50.61,0,0,0-16.76-9.38,57.75,57.75,0,0,0-17.91-3H508Z"/><path class="cls-2" d="M643.74,45.89h24.65v153.4H643.74Z"/><path class="cls-2" d="M791,77.28a108.67,108.67,0,0,0-17.49-7.48,56.72,56.72,0,0,0-17.71-3q-11.37,0-17.91,5.06t-6.53,13.91a15.53,15.53,0,0,0,4.53,11.06,40.31,40.31,0,0,0,11.7,8.21q7.15,3.48,15.17,6.64a117,117,0,0,1,13.7,6,59.91,59.91,0,0,1,12.33,8.43,34.87,34.87,0,0,1,8.85,12.63,47.26,47.26,0,0,1,3.26,18.45,41.28,41.28,0,0,1-6,22q-6,9.79-17.59,15.8t-27.6,6a84.29,84.29,0,0,1-18.87-2.11,99.08,99.08,0,0,1-17.38-5.69,80.39,80.39,0,0,1-15.17-8.64l11-19a70.21,70.21,0,0,0,11.6,6.95,79,79,0,0,0,13.37,5.06,49.51,49.51,0,0,0,13.17,1.89,40.77,40.77,0,0,0,13-2.21,24.06,24.06,0,0,0,10.84-7.05q4.23-4.86,4.22-13.07a16.63,16.63,0,0,0-3.79-11.06,36,36,0,0,0-9.8-8,91.19,91.19,0,0,0-13.17-6.22q-7-2.73-14.54-6.11a68.3,68.3,0,0,1-14-8.33,36.93,36.93,0,0,1-10.22-12.11q-3.79-7.17-3.79-17.49,0-12.64,5.68-22a40,40,0,0,1,16.34-14.86A55.83,55.83,0,0,1,752.26,45q16.22,0,27.7,3.9a97.44,97.44,0,0,1,20.55,9.59Z"/><path class="cls-2" d="M668.39,0H924.2V21.36l-58.78-.06V199.24l-25.44,0V21.36H668.39Z"/></svg>