<?xml version="1.0" encoding="UTF-8"?><svg id="a" xmlns="http://www.w3.org/2000/svg" viewBox="0 0 369 368.95"><path d="M350.27,368.95c-3.89-2.88-8.2-5.34-11.59-8.71-32.62-32.4-65.1-64.94-97.58-97.48-1-1-1.63-2.38-2.48-3.63-37.52,28.77-78.55,39.18-123.8,29.43-37.63-8.11-67.63-28.67-89.25-60.45C-15.4,167.89-5.69,90.32,44.34,41.75,100.25-12.52,183.45-12.55,239.4,33.92c58.45,48.53,72.69,137.62,20.37,203.89,.9,.96,1.83,1.99,2.81,2.97,32.51,32.51,65.06,64.98,97.46,97.6,3.46,3.48,6,7.87,8.96,11.84v6.48c-2.03,6.13-6.11,10.22-12.25,12.25h-6.48Zm-88.83-222.99c-.43-63.73-52.14-115.28-115.43-115.06-63.63,.22-115.32,52.06-115.06,115.34,.26,63.58,51.4,115.19,115.34,115.02,64.58-.17,114.72-51.98,115.14-115.31Z"/></svg>