<?xml version="1.0" encoding="UTF-8"?><svg id="a" xmlns="http://www.w3.org/2000/svg" viewBox="0 0 300.84 301.36"><defs><style>.b{fill:#fefefe;}</style></defs><path class="b" d="M300.23,288.91c-.57-1.79-1.31-3.54-2.05-5.27-10.08-23.54-20.2-47.07-30.27-70.62-6.52-15.24-13-30.5-19.44-45.78-2.25-5.33-5.89-7.89-11.9-7.67-8.89,.32-17.81,0-26.71,.11-3.38,.04-4.18-.95-2.42-3.95,4.23-7.22,7.88-14.74,11.22-22.41,9.55-21.91,14.7-44.33,9.5-68.39-5.91-27.33-20.98-47.22-46.51-58.78-14.57-6.59-29.96-7.32-45.57-4.78-14.71,2.39-28.15,7.84-38.81,18.48-22.76,22.71-29.96,50.48-24.91,81.66,3.11,19.14,11.42,36.43,20.71,53.26,.7,1.26,2.22,2.56,1.49,3.96-.88,1.7-2.93,.9-4.46,.91-7.96,.06-15.92,.03-23.88,0-8.99-.02-11.04,1.47-14.52,9.78-5.2,12.44-10.52,24.82-15.84,37.21-11.5,26.75-23.1,53.45-34.54,80.23-3.7,8.66,.47,14.51,10.02,14.51,46.28,0,92.56,0,138.84,0,19.97,0,39.94,0,59.91,0,26.99,0,53.97,.02,80.96-.02,7.36-.01,11.39-5.53,9.17-12.43ZM88.76,86.68c.04-17.74,3.59-33.03,13.94-46.07,14.44-18.19,33.54-24.75,56.28-22.11,31.7,3.68,51.39,31.31,53.15,60.59,1.12,18.57-4.14,35.43-11.81,51.76-12.5,26.64-29.34,50.55-47.41,73.63-1.54,1.97-2.86,2.53-4.72,.15-18.45-23.65-35.59-48.15-48.24-75.49-6.43-13.89-11.67-28.17-11.2-42.46Zm-31.15,114.47c2.86-6.68,5.86-13.31,8.53-20.07,1.16-2.93,2.88-4.3,6.01-4.28,10.11,.07,20.22,.05,30.33,.02,2.67,0,4.65,1.1,6.12,3.26,3.42,5,6.77,10.06,10.31,14.97,1.79,2.48,1.5,4-1.28,5.32-4.26,2.02-8.45,4.19-12.65,6.34-19.3,9.89-38.59,19.81-57.91,29.68-1.5,.77-2.89,1.94-5.41,1.96,5.45-12.73,10.7-24.96,15.94-37.2Zm66.44,82.4c-32.37,0-64.73,0-97.1,0-4.62,0-4.07,.13-2.87-4.33,2.98-11.06,10.12-17.4,20.47-21.84,11.99-5.14,23.4-11.66,34.97-17.75,2.71-1.43,4.48-1.22,6.67,.98,13.38,13.48,26.89,26.82,40.35,40.23,.55,.55,.92,1.28,1.94,2.71-2.05,0-3.24,0-4.42,0Zm80.89-17.02c-8.85,4.6-17.75,9.11-26.45,13.99-4.84,2.72-9.82,3.51-15.64,2.88-6.03,1.63-10.24-1.52-14.61-6.03-14.89-15.37-30.2-30.35-45.39-45.42-1.85-1.83-2.4-3.09,.41-4.5,8.92-4.47,17.81-9,26.66-13.62,2.01-1.05,2.96,0,4.03,1.34,2.68,3.37,5.39,6.72,8.09,10.08,5.2,6.47,10.72,6.92,16.19,.67,12.35-14.1,23.44-29.2,33.65-44.91,1.85-2.85,4.02-4.19,7.23-4.19,9.85,0,19.69,.03,29.54-.01,3.23-.01,5.07,1.37,6.37,4.45,7.54,17.88,15.2,35.71,23.01,53.47,1.4,3.19,0,4.37-2.42,5.62-16.9,8.7-33.79,17.42-50.66,26.18Zm70.56,17.04c-20.22-.06-40.45-.03-60.67-.06-.48,0-.97-.21-2.61-.59,7.31-3.87,13.58-7.23,19.89-10.51,10.28-5.35,20.63-10.58,30.87-16.01,2.76-1.47,4.04-.81,5.15,1.93,2.94,7.24,6.09,14.39,9.1,21.6,.73,1.74,1.79,3.65-1.73,3.64Z"/><path class="b" d="M150.49,106.3c14.64,0,26.75-11.89,26.53-26.46-.22-14.43-10.37-26.85-26.73-26.64-15.62,.2-25.86,11.37-26.45,26.67-.55,14.3,12.09,26.43,26.66,26.43Zm.52-35.43c4.43,.24,8.34,4.47,8.26,8.93-.09,4.83-4.11,8.78-8.81,8.68-4.91-.11-9.12-4.48-8.85-9.19,.24-4.34,5.06-8.64,9.41-8.41Z"/></svg>