<svg id="Capa_1" data-name="Capa 1" xmlns="http://www.w3.org/2000/svg" viewBox="0 0 383.56 307"><defs><style>.cls-1{fill:#fff;}</style></defs><path class="cls-1" d="M0,45.5c2.49-7,4-14.56,7.64-20.84C23.58-2.59,61-8.21,84.66,12.6c.57.5,1.14,1,1.67,1.5,34.75,34.75,69.8,69.21,104.11,104.39,19.21,19.7,18.85,49.55.05,69.69-11.23,12-23.15,23.4-34.79,35q-33.58,33.61-67.21,67.21c-16.81,16.76-39.79,21.07-60,10.83C13,293.47,3.7,280.8.7,263.64a22,22,0,0,0-.7-2.49V249.92a5.76,5.76,0,0,0,.55-1.38c1.65-12.67,7.91-22.78,16.88-31.64C37.72,196.83,57.82,176.57,78,156.38c1-.95,1.85-1.95,2.93-3.08-1.06-1.11-2-2.11-2.91-3.06Q47.23,119.45,16.4,88.67c-7.62-7.58-13-16.32-15.24-26.89C.8,60.09.39,58.41,0,56.73ZM117.39,153.66c-1.4,1.18-2.53,2-3.5,3Q74.58,195.91,35.3,235.23a52.72,52.72,0,0,0-4.71,5.31c-8,10.52-6,26.37,4.34,34.6,10.81,8.59,25.33,7.39,35.82-3.1q49.52-49.46,99-99a35,35,0,0,0,5.4-6.65c6.53-11,4.51-22.95-5.45-32.92Q120.33,84.09,71,34.75A53,53,0,0,0,66.76,31C54.93,21.51,36.7,25,29.18,38.15,22.94,49.07,24.8,60.89,34.4,70.51q39.81,39.85,79.66,79.67C115,151.13,115.92,152.13,117.39,153.66Z" transform="translate(0 0.19)"/><path class="cls-1" d="M260.25,153.65c-22-22.06-43.34-43.44-64.72-64.75-6.19-6.17-11.07-13.09-13.92-21.42A51.17,51.17,0,0,1,201.67,8.55c19-12.71,45.36-11.76,61.66,4.14Q317.6,65.58,370.49,119.87c17.73,18.26,17,47.83.23,66.94a3.47,3.47,0,0,1-.25.29c-35.54,35.55-70.83,71.36-106.75,106.54-15.08,14.76-38.16,17-57.1,7.34a51.23,51.23,0,0,1-27.54-50c1.25-12.93,6.87-23.74,16.08-32.88,20.63-20.48,41.12-41.09,61.69-61.63C257.81,155.48,259,154.71,260.25,153.65Zm36.78-.6c-2.13,1.78-3.26,2.58-4.23,3.55q-39.32,39.28-78.59,78.61a55.25,55.25,0,0,0-4.73,5.3c-7.94,10.36-6.08,26.15,4,34.38,10.67,8.71,25.34,7.88,35.58-2.32q50.24-50.07,100.29-100.32a29.89,29.89,0,0,0,4.64-5.83c6.52-11,4.52-23-5.44-32.93q-49.33-49.38-98.71-98.72a51.12,51.12,0,0,0-4.48-4c-11.76-9.26-29.86-5.7-37.3,7.32C201.84,49,203.7,60.9,213.28,70.5q39.81,39.85,79.68,79.64A34.31,34.31,0,0,0,297,153.05Z" transform="translate(0 0.19)"/></svg>