<?xml version="1.0" encoding="UTF-8"?><svg id="a" xmlns="http://www.w3.org/2000/svg" viewBox="0 0 369 368.51"><defs><style>.b{fill:#96c122;}.c{fill:#030303;}</style></defs><path class="c" d="M153.72,299.54c40.04,0,80.07,0,120.11,0,1.34,0,2.68-.01,4.03,0,2.29,.02,4.64-.04,5.67-2.55,1.09-2.67-.96-4.05-2.64-5.53-9.62-8.49-17.87-18.13-24.37-29.22-2.14-3.65-4.3-7.33-6.02-11.19-2.8-6.26-.6-12.65,4.99-15.52,5.73-2.94,12.37-1.23,15.48,4.95,7.14,14.2,17.05,26.01,28.67,36.75,8.46,7.82,9.54,18.1,5.51,28.45-4.19,10.76-12.56,16.77-24.26,16.89-21.25,.23-42.5,.22-63.74-.05-5.13-.06-7.31,1.56-8.93,6.53-8.09,24.81-26.76,39.29-49.97,39.45-31.29,.21-50.6-12.27-59.95-39.19-1.54-4.42-3.77-5.67-8.27-5.61-19.01,.24-38.02,.11-57.04,.1-5.37,0-10.75-.12-15.86-2.03-18.95-7.08-23.12-31.67-7.67-46.25,6.36-6,12.58-12.08,17.7-19.18,12.26-17,18.24-36.08,18.95-56.96,.68-20.1-1.04-40.23,1.18-60.32,4.57-41.27,38.07-79.24,78.66-88.91,8.27-1.97,14.6,.77,16.55,7.16,2.06,6.77-1.79,12.84-10.27,15.29-33.11,9.54-53.21,31.36-61.09,64.62-2.29,9.65-1.41,19.58-1.54,29.41-.25,19.19,.92,38.42-3.2,57.45-5.69,26.25-19,47.88-38.35,66.14-1.91,1.8-5.77,3.02-4.14,6.74,1.44,3.27,4.85,2.58,7.72,2.59,40.71,.01,81.42,0,122.13,0Zm31.45,23.61c-.38-.15-.77-.44-1.15-.44-16.09-.04-32.17-.18-48.26,.01-4.46,.05-11.86-2.15-12.77,1.27-1.25,4.74,4.32,9.18,8.2,12.9,.8,.77,1.71,1.43,2.62,2.08,18.26,13.18,46.1,4.61,51.35-15.83Z"/><path class="b" d="M268.75,199.95c-57.12-.81-99.95-45.23-99.95-100.51C168.78,43.64,215.13,.78,271.46,0c42.86-.59,99.65,36.15,97.48,102.28-1.91,58.31-48.57,97.54-100.19,97.67Zm.28-23.43c42.08-.03,76.35-34.25,76.38-76.27,.03-42.13-34.75-76.87-76.82-76.72-42.33,.14-76.24,34.5-76.17,77.17,.07,42.11,34.15,75.85,76.61,75.82Z"/><path class="b" d="M284.06,104.17c0,8.93,.02,17.86,0,26.79-.02,10.02-4.18,15.49-11.67,15.41-7.11-.07-11.4-5.69-11.42-15.14-.02-13.17-.17-26.34,.16-39.5,.13-5.05-.91-7.52-6.57-6.88-4.19,.48-7.91-1.2-10.49-4.76-5.23-7.21-.9-16.82,8.02-18.02,7.12-.96,14.22-.96,21.35-.05,6.97,.89,10.37,4.15,10.53,11.34,.22,10.26,.06,20.53,.06,30.8h.03Z"/></svg>