<?xml version="1.0" encoding="UTF-8"?><svg id="a" xmlns="http://www.w3.org/2000/svg" viewBox="0 0 342.79 367.44"><defs><style>.b{fill:#fff;}</style></defs><path class="b" d="M210.04,0c7.41,3.38,8.93,9.28,7.74,16.83-1.57,10.01-2.61,20.11-3.94,30.63,9.49-.46,17.8,1.7,23.75,9.39,3.41,4.41,4.94,9.44,4.73,15.05-.45,12.06-9.09,20.28-23.85,22.39v25.97c.92-.25,1.79-.41,2.6-.73,54.08-21.57,113.11,12.56,120.82,70.31,4.04,30.27-5.8,56.03-27.91,77.01-1.89,1.79-2.42,3.42-2.08,5.91,3.27,23.97,.34,47.24-8.92,69.54-5.56,13.4-15.91,21.45-30.13,24.43-.67,.14-1.3,.47-1.95,.71H78.97c-6.59-1.55-13.09-3.3-18.59-7.57-.4-.31-1.48-.28-1.89,.04-5.39,4.17-11.79,5.85-18.2,7.53h-10.74c-3.84-1.21-7.82-2.08-11.48-3.69-12.31-5.44-19.08-16.17-17.94-28.2,.73-7.72,4.76-13.66,10.69-18.37,8.29-6.59,17.96-8.89,31.5-7.53,0-1.27,.11-2.52-.02-3.74-6.82-64.15,29.97-122.41,91.03-143.97,2.31-.81,3.09-1.85,3.04-4.32-.16-9.21-.05-18.42-.07-27.62,0-2.6,.76-4.72,3.26-5.86,3.57-1.63,7.39,.79,7.44,4.99,.12,10.64,.19,21.29-.05,31.93-.12,5.56-3.59,8.82-8.74,10.52-11.85,3.91-23.04,9.26-33.1,16.66-35.01,25.77-52.68,60.49-52.83,104.04-.02,5.12,.68,10.25,.97,15.38,.24,4.33,1.4,7.99,6.41,9.36,1.81-1.07,4.15-2.11,5.99-3.72,.86-.75,1.2-2.68,1-3.95-2.53-16.05-1.98-31.95,2.31-47.62,1.54-5.62,3.69-11.09,5.78-16.54,1.86-4.86,5.68-7.36,10.81-7.42,10.74-.12,21.48-.1,32.23-.01,3.64,.03,5.93,2.28,5.96,5.35,.03,3.25-2.29,5.33-6.23,5.35-9.91,.05-19.81,.06-29.72-.01-1.89-.01-3.03,.43-3.83,2.33-6.68,15.73-8.99,32.12-7.67,49.09,.02,.31,.24,.61,.4,.99,3.71-2.73,7.18-5.62,10.96-7.99,9.89-6.21,20.77-8.83,32.42-8.17,5.9,.33,8.56,3.02,8.98,8.96,.95,13.19-2.01,25.38-9.27,36.48-.45,.69-.87,1.4-1.53,2.46,1.14,.13,2,.31,2.87,.31,47.5,.01,95.01,.02,142.51,0,4.91,0,6.57-1.14,8.29-5.73,9.36-25.04,9-49.99-.6-74.91-1.12-2.91-2.57-3.88-5.7-3.87-40.94,.11-81.88,.07-122.82,.07-5.75,0-8.07-1.48-8.17-5.16-.11-3.84,2.46-5.6,8.2-5.6,41.3,0,82.6,0,123.89,0,7.91,0,11.01,1.99,13.95,9.25,11.27,27.79,11.77,55.79,1.34,83.92-3.32,8.96-8.96,12.8-18.52,12.8-46.79,.01-93.58,0-140.37,0h-4.03c-2.38,4.33-4.65,8.46-7.02,12.77,.76,.06,1.74,.2,2.73,.2,49.89,.01,99.78,.03,149.67,0,13.87,0,24.41-7.43,29.4-20.43,7.82-20.39,10.38-41.39,7.24-63.03-.81-5.56,.75-9.77,4.93-13.72,23.58-22.3,31.94-49.58,22.34-80.57-9.66-31.17-31.97-49.41-64.24-54.51-14.19-2.25-28.05,.16-41.23,6.04-.98,.44-1.93,.93-2.92,1.36-6.54,2.84-12.31-.66-12.46-7.81-.18-8.37-.05-16.74-.05-25.11,0-1.43,0-2.86,0-4.58h-60.47c0,3.93,.02,7.84,0,11.75-.02,4.5-1.96,6.93-5.43,6.88-3.41-.05-5.28-2.52-5.31-7.05-.02-3.82,0-7.63,0-11.79-8.26-.61-12.86-5.98-16.8-12.42-3.24-5.29-6.82-10.38-10.3-15.52-2.69-3.97-3.43-8.15-1.17-12.5,2.35-4.52,6.37-6.19,11.28-6.17,7.01,.03,14.02,0,21.41,0-.91-7.41-1.75-14.37-2.62-21.33-.55-4.39-1.21-8.76-1.68-13.16-.7-6.58,2.84-10.48,8.44-13.01h65.18ZM117.48,58.44c.44,.97,.63,1.63,1,2.18,4.21,6.37,8.47,12.71,12.68,19.09,1.67,2.53,3.97,3.58,6.96,3.56,8.71-.06,17.41-.02,26.12-.02,18.13,0,36.26,.05,54.39-.03,8.06-.03,13.68-6.18,12.91-13.84-.64-6.4-6.27-11.09-13.64-11.1-32.56-.04-65.12-.02-97.69-.01-.78,0-1.57,.1-2.73,.17ZM207.52,11.08h-60.49c1.54,12.26,3.03,24.19,4.53,36.15h51.49c1.5-12.16,2.98-24.09,4.47-36.15ZM84.07,356.71c7.08-.25,13.64-2.06,18.93-7.12,7.13-6.83,6.95-16.33-.35-23-9.76-8.93-27.84-8.88-37.54,.1-7.21,6.67-7.3,16.27-.11,23.02,5.33,5.01,11.9,6.8,19.07,7Zm-31.94-31.09c-9.87-7.98-26.74-7.49-35.9,.93-7.55,6.94-7.48,17.15,.38,23.75,6.72,5.64,14.62,7.25,23.17,5.93,4.61-.71,8.93-2.18,12.46-5.33-4.44-10.16-4.45-14.23-.1-25.29Zm32.18-16.54c11.44,.54,20.59,4.25,28.19,12.18,4.58-8.18,6.5-16.55,5.75-25.87-13.06-.17-23.95,4.19-33.94,13.69Z"/><path class="b" d="M253.41,148.59c40.53-.12,66.24,42.52,47.73,77.62-1.73,3.28-3.94,5.68-7.88,5.82-3.95,.14-6.31-2.06-8.23-5.26-14.33-23.93-34.38-41.27-60.05-52.06-3.48-1.46-5.88-3.66-6.27-7.52-.38-3.76,1.67-6.24,4.56-8.34,9.28-6.73,19.64-10.06,30.15-10.26Zm-20.94,17.58c25.23,11.41,45.17,28.9,60.23,52.31,8.32-16.93,2.45-38.79-13-50.55-15.75-11.99-36.8-10.06-47.23-1.76Z"/></svg>