<svg id="Capa_1" data-name="Capa 1" xmlns="http://www.w3.org/2000/svg" viewBox="0 0 296.4 302.21"><defs><style>.cls-1{fill:#fff;}.cls-2{fill:#fefefe;}.cls-3{fill:#96c122;}</style></defs><rect class="cls-1" width="296.4" height="302.21"/><path class="cls-2" d="M199.53,297.58c-.51-3.4-2.65-4.37-4.74-5-3.66-1.11-5-3.54-5.13-7.14-.2-4.64-.1-9.37-1.09-13.86-6.9-31.39-14.06-62.73-21.11-94.09-1.83-8.11-3.75-16.21-5.26-24.39-.86-4.69.67-6.48,4.51-5.44,6.85,1.84,14,1.69,20.83,3.3,6.47,1.52,9.14.06,11.48-6.14,3.06-8.08,6.2-16.13,8.9-24.33,1.61-4.9,3.16-9.09,9.64-7.48a2.38,2.38,0,0,0,2.49-1c-4.6-4.41-9-4.41-13,.21-5.07,5.78-10,11.68-15,17.54-2,2.32-4.12,4.38-7.37,2.49-7.29-4.24-15.23-4.34-23.3-4.07-6.06.2-12.26,1-18.12-1-3.85-1.31-6.61-.45-9.57,2-10.22,8.49-20.6,16.8-30.9,25.19C97.11,159,97,160.66,102,165.94c7,7.44,14.2,14.78,21.16,22.3,4.34,4.7,4.53,7.25,1.53,11.9-.47.73-1.8,1.38-.92,2.36,1,1.13,2,.07,2.9-.58s1.9-1.42,3-.74.67,2,.55,3.07c-1,9.87-2.43,19.71-3.17,29.59-1.12,15-4.58,29.79-4.37,44.9.12,8.87-.39,17.36-9.59,22.93,9.11.78,10.26.1,13.27-7.16.8-1.93,1.55-3.86,2.21-5.83,7.87-23.68,14-47.87,21.14-71.78.54-1.8.47-4,2.49-5.58,2.47,5.77,4.88,11.16,7.09,16.64,8.62,21.33,19,41.94,26.37,63.78a6.5,6.5,0,0,0,4.92,4.2C193.32,296.6,196.19,297,199.53,297.58Zm-72-291.39c.22-2.52-.9-3.79-3.12-4.27s-4.35-1-6.52-1.54c-3.38-.84-5.42.32-6.56,3.72-2.48,7.45-5.83,8.22-11.54,2.53-3-3-5.64-2.85-8.82-.42C85.8,10.13,85.51,11,88.32,16.87c2.14,4.42,1,7.81-3.31,7.66-6.36-.22-8.9,2-7.81,8.29a4,4,0,0,1-.32,1.4c-1,4.1.44,6.3,4.7,7.1,6.94,1.3,7.93,3.44,4.15,9.4-2.41,3.81-1.25,6.44,1.59,9.26s5.44,4.57,9.58,1.9c5.69-3.67,9.29-2.25,10.23,4.27s5.4,4.89,9.35,5.28,5.73-1.28,6.32-5.23c.63-4.17,3.28-5.08,7-2.86.82.5,1.54,1.15,2.31,1.72,2.8,2.07,5.35,1.66,7.68-.8s5-4.58,2.73-8.64c-2.8-5-1.84-6.92,3.82-8.4,2.77-.72,5-2,4.56-5.14s1.36-7.2-3.9-8.54c-4.92-1.26-5.33-3.37-1.84-7.48a5.87,5.87,0,0,0,.77-7.43c-3.11-5.76-4-6.17-10.12-4.09-6.31,2.13-9.75-.75-8.53-7.14a9.21,9.21,0,0,1,.21-1.21Zm49,63.72c.88-3.28-.6-4.92-4.06-5.22a20.44,20.44,0,0,1-3.71-.88c-2.84-.8-4.48.28-5.53,3-2.53,6.59-4.52,7-9.79,2.16-2.66-2.48-5-2.2-7.6-.08s-4.84,4-2.54,7.92c3,5.22,1.84,7.17-4.25,7.43-3.11.13-4.88,1-4.57,4.52a23,23,0,0,1-.35,4.76c-.31,2.52.83,3.84,3.2,4.53,7.17,2.07,7.22,2.14,3.9,8.88-1.42,2.86-.39,4.84,1.66,6.77s3.75,3.94,7,2.47c7.34-3.28,7.51-3.26,10.13,4.44,1.58,4.64,5.37,2.22,8.15,2.93,2.12.54,3.58-.55,4.34-2.75,2.15-6.22,2.25-6.27,7.93-2.68,2.37,1.49,4.44,1.62,6.47-.43s4.56-4,2.4-7.34c-2.68-4.17-.76-6.25,3.3-7.21,2.78-.65,4.11-2.16,4-5.06-.13-2.74.15-5.62-3.48-6.45-3.93-.89-4.28-3.28-1.84-5.83,3.22-3.35,1.45-6-.38-9-2-3.2-4.34-2.2-7-1.24-5.2,1.9-7.8-.15-7.37-5.64ZM117,78.84c1-4.68-3-3.77-5.39-4.68-2.78-1.07-4.38-.46-5.53,2.5-1.91,4.89-3.62,5.22-7.62,1.58-2.19-2-4-2.08-6.33-.32s-3.76,3.53-2,6.82c2,4.07,1.18,5.45-3.42,5.79-2.44.17-4.22.69-3.9,3.52s-2.46,6.83,2.76,7.76c4.69.84,5.73,3,2.93,6.89-1.66,2.33-.62,4.14,1.15,5.89s3.37,3.15,6.23,1.71c5.18-2.59,5.74-2.35,7.54,3.45,1,3,3.06,2.74,5.29,2.83s4.69.3,5.18-2.81c.77-4.83,3.32-3.86,6-1.83,2,1.46,3.76,1.61,5.56-.16s3.64-3.36,1.89-6.15c-1.92-3-.71-4.88,2.45-5.6,2.43-.56,3.56-1.8,3.49-4.33-.06-2.35-.11-4.52-3-5.23s-3.14-2.72-1.37-4.6c2.5-2.68,1.38-4.84-.22-7.28s-3.64-1.71-5.9-1c-4.23,1.19-5.85-.19-5.83-4.75Z"/><path class="cls-3" d="M199.53,297.58c-3.34-.59-6.18-1-9-1.62a6.5,6.5,0,0,1-4.92-4.2c-7.29-21.84-17.71-42.45-26.29-63.78-2.21-5.48-4.62-10.87-7.09-16.64-2,1.6-2,3.78-2.49,5.58-7.09,23.91-13.27,48.1-21.14,71.78-.66,2-1.41,3.91-2.21,5.82-3,7.27-4.16,7.94-13.27,7.17,9.2-5.58,9.71-14.05,9.59-22.93-.21-15.1,3.25-29.89,4.37-44.9.74-9.88,2.13-19.72,3.17-29.59.12-1,.66-2.33-.55-3.07s-2.12,0-3,.74-1.89,1.72-2.9.58.45-1.63.92-2.36c3-4.66,2.81-7.21-1.53-11.89-7-7.53-14.12-14.86-21.16-22.31-5-5.28-4.84-6.93.84-11.57,10.3-8.39,20.68-16.7,30.9-25.19,3-2.47,5.72-3.33,9.57-2,5.86,2,12.06,1.18,18.12,1,8.07-.27,16-.17,23.3,4.07,3.25,1.89,5.4-.17,7.37-2.49,5-5.86,9.9-11.76,15-17.54,4.05-4.62,8.43-4.62,13-.21a2.38,2.38,0,0,1-2.49,1c-6.48-1.61-8,2.58-9.64,7.48-2.7,8.2-5.84,16.25-8.9,24.33-2.34,6.2-5,7.66-11.48,6.14-6.86-1.61-14-1.46-20.83-3.3-3.84-1-5.37.75-4.51,5.44,1.51,8.18,3.43,16.28,5.26,24.39,7.05,31.36,14.21,62.7,21.11,94.09,1,4.48.89,9.23,1.09,13.85.16,3.6,1.47,6,5.13,7.15C196.88,293.21,199,294.18,199.53,297.58Zm-63.6-148.15c-3.31,2-6.15,3.73-9,5.42-5.7,3.36-6.44,4.72-5.06,11.27a79.23,79.23,0,0,0,9.56,25.23C133,176.71,134.43,163.39,135.93,149.43Z"/><path class="cls-3" d="M127.49,6.19c-.06.27-.16.74-.25,1.21-1.22,6.39,2.22,9.27,8.53,7.14,6.15-2.08,7-1.67,10.12,4.09a5.87,5.87,0,0,1-.77,7.43c-3.49,4.11-3.08,6.22,1.84,7.48,5.26,1.34,3.51,5.39,3.9,8.54s-1.79,4.45-4.54,5.14c-5.66,1.48-6.62,3.44-3.82,8.4,2.29,4.06-.43,6.21-2.73,8.64s-4.88,2.87-7.68.8c-.77-.57-1.49-1.22-2.31-1.72-3.68-2.22-6.33-1.31-7,2.86-.59,4-2.25,5.64-6.32,5.23s-8.42,1.18-9.35-5.28-4.54-7.94-10.23-4.27c-4.14,2.67-6.72.94-9.58-1.9s-4-5.45-1.53-9.26c3.78-6,2.79-8.1-4.15-9.4-4.26-.8-5.75-3-4.7-7.1a4,4,0,0,0,.32-1.4c-1.09-6.29,1.45-8.51,7.81-8.29,4.3.15,5.45-3.24,3.31-7.66C85.51,11,85.8,10.13,90.93,6.21c3.18-2.43,5.82-2.57,8.82.42,5.71,5.69,9.06,4.92,11.54-2.53,1.14-3.4,3.18-4.56,6.56-3.72,2.17.54,4.34,1.06,6.52,1.54S127.71,3.67,127.49,6.19Zm-12.87,42.2a13.62,13.62,0,0,0,13.6-13.3c.16-7.28-5.88-13.15-13.54-13.17s-13,5.12-13.07,12.83S107.15,48.35,114.62,48.39Z"/><path class="cls-3" d="M176.49,69.91c-.43,5.49,2.17,7.54,7.34,5.7,2.71-1,5.07-2,7,1.24,1.83,3,3.6,5.61.38,9-2.44,2.55-2.09,4.94,1.84,5.83,3.63.83,3.35,3.71,3.48,6.45.14,2.9-1.19,4.41-4,5.06-4.06,1-6,3-3.3,7.21,2.16,3.37-.38,5.3-2.4,7.34s-4.1,1.92-6.47.43c-5.68-3.59-5.78-3.54-7.93,2.68-.76,2.2-2.22,3.29-4.34,2.75-2.78-.71-6.57,1.71-8.15-2.93-2.62-7.7-2.79-7.72-10.13-4.44-3.29,1.47-5-.59-7-2.47s-3.08-3.91-1.66-6.77c3.32-6.74,3.27-6.81-3.9-8.88-2.37-.69-3.51-2-3.2-4.53a23.18,23.18,0,0,0,.35-4.77c-.31-3.49,1.46-4.39,4.57-4.52,6.09-.26,7.29-2.21,4.25-7.43-2.3-4-.13-5.78,2.54-7.92s4.94-2.4,7.6.08c5.27,4.89,7.26,4.43,9.79-2.16,1-2.73,2.69-3.81,5.53-3a20.44,20.44,0,0,0,3.71.88C175.89,65,177.37,66.63,176.49,69.91Zm-10.61,12c-6.51,0-10.74,4.34-10.75,10.9s4.69,11.48,11,11.46a11.46,11.46,0,0,0,11.19-11.44c0-6.3-4.92-11-11.44-11Z"/><path class="cls-3" d="M117,78.84c0,4.56,1.6,5.94,5.87,4.68,2.26-.67,4.23-1.49,5.9,1s2.72,4.6.22,7.28c-1.77,1.88-1.61,3.87,1.37,4.6s3,2.88,3,5.23c.07,2.53-1.06,3.77-3.49,4.33-3.16.72-4.37,2.55-2.45,5.6,1.75,2.79-.15,4.44-1.89,6.15s-3.58,1.62-5.56.16c-2.73-2-5.28-3-6,1.83-.49,3.11-2.87,2.9-5.18,2.81s-4.34.2-5.29-2.83c-1.8-5.8-2.36-6-7.54-3.45-2.86,1.44-4.44.07-6.23-1.71s-2.81-3.56-1.15-5.89c2.8-3.93,1.76-6-2.93-6.89-5.22-.93-2.44-5-2.76-7.76s1.46-3.31,3.86-3.45c4.56-.31,5.46-1.69,3.34-5.75-1.72-3.29-.37-5,2-6.82s4.14-1.66,6.33.32c4,3.63,5.71,3.3,7.62-1.59,1.15-3,2.75-3.57,5.53-2.5C114,75.08,118,74.16,117,78.84Zm-8.44,9.74a8.54,8.54,0,0,0-9,8.06c0,.17,0,.33,0,.5-.14,5.43,3.89,9.78,9,9.72a9.61,9.61,0,0,0,9.19-9.25,9,9,0,0,0-9-9Z"/><path class="cls-2" d="M135.93,149.43c-1.5,14-2.93,27.28-4.51,41.92a79.23,79.23,0,0,1-9.56-25.23c-1.38-6.55-.64-7.91,5.06-11.27C129.78,153.16,132.62,151.42,135.93,149.43Z"/><path class="cls-2" d="M114.62,48.39c-7.47,0-13.07-5.91-13-13.64s5.29-12.84,13.07-12.83,13.7,5.89,13.54,13.17A13.61,13.61,0,0,1,114.62,48.39Z"/><path class="cls-2" d="M165.88,81.86c6.52,0,11.47,4.7,11.48,11a11.47,11.47,0,0,1-11.27,11.39c-6.27,0-11-4.89-11-11.46S159.37,81.91,165.88,81.86Z"/><path class="cls-2" d="M108.53,88.58a9,9,0,0,1,9.21,8.78v.22a9.61,9.61,0,0,1-9.19,9.25c-5.12.06-9.15-4.29-9-9.72a8.54,8.54,0,0,1,8.54-8.55Z"/></svg>