<?xml version="1.0" encoding="UTF-8"?><svg id="a" xmlns="http://www.w3.org/2000/svg" viewBox="0 0 368.79 276.49"><defs><style>.b{fill:#fff;}</style></defs><path class="b" d="M368.79,148.34c-6.55,9.71-12.5,19.89-19.77,29.03-28.15,35.4-64.5,57.51-109.21,65.3-8.6,1.5-17.4,1.88-26.09,2.89-1.32,.15-2.94,.55-3.78,1.44-14.61,15.42-33.25,22.75-53.54,26.55-7.87,1.48-15.91,2.23-23.9,2.89-6.47,.54-9.56-2.75-9.48-9.22,.14-10.82,.76-21.59,4.24-31.96,.91-2.7,2.15-5.29,3.35-8.19-20.16-8.36-39.77-17.55-57.66-29.74-4.14,4.54-7.81,9.3-12.2,13.25-14.86,13.35-32.92,18.69-52.45,19.8-4.64,.26-8.23-2.76-8.2-7.28,.15-26.4,4.43-51.63,21.79-72.91,1.13-1.39,2.36-2.71,3.53-4.06,.07-.08,.08-.21,.11-.32C5.46,124.41,.55,97.9,0,69.96c-.11-5.38,3.37-8.76,8.53-8.47,17.86,1.02,34.62,5.61,48.77,16.99,5.64,4.53,10.34,10.23,15.82,15.75-.25,.11,.29-.07,.78-.34,12.14-6.75,24.23-13.61,36.47-20.18,2.47-1.33,3.32-2.33,2.35-5.11-6.34-18.21-12.54-36.47-18.78-54.72-.35-1.02-.75-2.02-1.08-3.05-2.1-6.57,2.13-11.8,8.95-10.7,13.72,2.2,27.48,4.31,41.09,7.08,20.86,4.25,41.1,10.53,59.91,20.76,8.69,4.73,16.68,10.38,23.34,17.82,.84,.94,2.36,1.6,3.65,1.77,19.52,2.54,38.26,7.7,56.06,16.21,28.94,13.83,52.21,34.28,70.54,60.43,4.46,6.37,8.27,13.19,12.37,19.81v4.32ZM15.11,214.02c18.06-1.44,38.94-12.35,47.15-30.49,3.23-7.14,8.32-7.95,14.31-2.94,2.93,2.45,6.02,4.78,9.24,6.83,23.09,14.71,48.07,25.36,73.93,34.1,26.33,8.89,53.11,11.54,80.48,5.84,48.74-10.14,85.11-37.53,110.83-79.68,.52-.85,.56-2.57,.04-3.41-24.44-39.94-58.49-67.13-104.51-78.22-17.63-4.24-35.48-5.86-53.56-3.45-16.13,2.15-31.68,6.64-46.77,12.54-25.37,9.92-50.48,20.41-71.9,37.89-3.41,2.78-8.26,1.67-10.71-2.02-.85-1.29-1.44-2.76-2.17-4.13-9.72-18.13-26.17-25.72-46.42-29.51,1.28,8.21,1.98,15.84,3.73,23.23,3.69,15.6,10.05,29.71,23.97,39.22,4.6,3.14,4.27,9.1-.22,12.52-2.1,1.59-4.33,3.06-6.19,4.9-9.44,9.33-14.65,20.98-17.5,33.68-1.69,7.53-2.49,15.27-3.73,23.11ZM202.48,45.79c-27.82-17.13-58.83-23.66-90.64-28.88,5.58,16.51,10.98,32.47,16.51,48.84,23.83-9.46,48.14-17.65,74.12-19.96Zm-13.96,199.26c-13.56-3.87-27.11-7.78-40.7-11.51-1.01-.28-2.99,.35-3.48,1.18-4.73,7.95-5.3,16.84-5.74,25.97,18.11-1.88,35.07-5.88,49.92-15.64Z"/><path class="b" d="M215.04,148.99c.48-25.56,4.52-47.06,15.69-66.74,1.23-2.17,3.71-4.1,6.06-5.04,2.66-1.07,5.44,.2,7.3,2.61,2.14,2.78,1.9,5.7,.55,8.8-3.02,6.9-6.68,13.64-8.7,20.83-8.96,31.91-7.37,63.06,8.17,92.9,2.17,4.17,2.14,7.34-.23,10.01-2.22,2.5-5.11,3.52-8.09,2.14-1.91-.89-3.77-2.63-4.84-4.46-7.7-13.1-11.98-27.41-14.05-42.37-1-7.23-1.45-14.54-1.84-18.68Z"/><path class="b" d="M184.18,149.49c.69-26.06,4.6-47.6,15.84-67.26,1.24-2.16,3.71-4.09,6.05-5.03,2.66-1.06,5.46,.21,7.3,2.63,2.13,2.79,1.85,5.75,.49,8.83-2.85,6.45-6.22,12.76-8.29,19.47-7.94,25.7-7.75,51.49,.38,77.17,.47,1.48,1.05,2.94,1.38,4.46,.96,4.44-1.09,8.36-4.92,9.57-4.08,1.29-8.23-.7-9.65-5.24-2.17-6.97-4.39-13.98-5.67-21.14-1.6-8.94-2.28-18.05-2.92-23.46Z"/><path class="b" d="M291.85,122.92c-.01,8.47-6.87,15.33-15.3,15.31-8.43-.02-15.25-6.9-15.24-15.38,.02-8.47,6.88-15.35,15.3-15.32,8.44,.03,15.25,6.9,15.23,15.38Z"/></svg>