<?xml version="1.0" encoding="UTF-8"?><svg id="a" xmlns="http://www.w3.org/2000/svg" viewBox="0 0 286.45 382.68"><path d="M152.82,0c7.45,1.23,15.06,1.87,22.33,3.78,56.68,14.92,92.42,51.08,107.37,107.71,7.76,29.4,3.3,58.08-6.99,86.07-21.45,58.34-53.18,110.56-94.03,157.27-3.92,4.49-8.25,8.65-12.6,12.72-6.73,6.3-14,11.88-22.78,15.12h-5.97c-14.73-5.74-25.34-16.82-35.62-28.13-25.05-27.58-45.49-58.45-63.6-90.93-13.34-23.93-24.89-48.68-33.13-74.9C-9.39,134.05,1.97,85.64,40.59,43.94,63.05,19.69,91.42,5.8,124.27,1.37c3.06-.41,6.11-.91,9.16-1.37,6.46,0,12.93,0,19.39,0ZM23.78,143.57c-.11,15.41,4.35,35.92,12.82,56.8,20.25,49.9,48.8,94.75,83.25,135.91,6.11,7.3,13.47,13.55,20.31,20.24,1.85,1.81,3.85,1.93,5.89,.07,3.49-3.18,7.25-6.08,10.53-9.47,16.41-16.95,30.39-35.85,43.52-55.39,21.21-31.55,40.02-64.4,52.86-100.39,8.55-23.98,12.31-48.25,6.62-73.63C245.32,54.14,182.77,13.3,119.09,26.33c-54.9,11.23-94.91,60.44-95.32,117.24Z"/><path d="M142.97,204.98c-33.03-.08-59.64-26.92-59.52-60.05,.12-32.77,27.09-59.6,59.82-59.49,32.95,.11,59.65,27.1,59.52,60.15-.13,32.87-26.92,59.46-59.82,59.38Zm.27-23.93c19.79-.07,35.74-16.12,35.68-35.91-.06-19.7-16.31-35.88-35.92-35.76-19.71,.12-35.72,16.28-35.68,36,.05,19.75,16.16,35.74,35.92,35.67Z"/></svg>