<?xml version="1.0" encoding="UTF-8"?><svg id="a" xmlns="http://www.w3.org/2000/svg" viewBox="0 0 297.47 345.87"><defs><style>.b{fill:#fefefe;}</style></defs><path class="b" d="M296.08,263.01c-2.48-20.31-8.76-39.45-19.25-57.13-6.58-11.09-14.44-21.17-23.55-30.29-4.02-4.03-8.95-4.87-14.15-3.29-5.14,1.56-8.15,5.26-9.1,10.68-1.16,6.6,2.86,10.82,6.81,14.93,8.1,8.43,14.68,17.85,20.04,28.24,7.57,14.65,11.23,30.3,13.13,46.54,.89,7.63-.84,14.14-6.23,19.49-6.13,6.09-13.73,9.98-21.6,13.26-23.96,9.97-49.19,14.43-74.9,15.62-29.08,1.35-58.09,.32-86.47-7.27-14.36-3.84-28.49-8.21-41.13-16.43-8.75-5.69-13.86-12.94-12.41-23.91,1.19-9.03,2.28-18.07,4.91-26.83,5.8-19.32,15.74-36.18,29.84-50.62,6.28-6.43,6.5-14.53,.85-20.32-5.43-5.56-13.72-4.95-20.19,1.52C21.02,198.87,7.98,225.02,2.35,254.98c-1.54,8.19-2.52,16.48-2.33,24.83,.37,16.35,8.51,28.57,21.49,37.51,25.49,17.55,54.47,25.36,84.84,27.96,13.97,1.2,28.13,.2,42.21,.2,10.36,0,20.73-.15,31.09,.04,10.7,.2,21.25-.5,31.75-2.84,23.06-5.13,45.65-11.44,64.96-25.82,10.56-7.86,18.63-17.57,20.64-31.25,1.12-7.62,0-15.17-.92-22.62Z"/><path class="b" d="M89.31,165.52c22.07,17.96,47.64,24.43,75.62,19.78,20.93-3.48,38.63-13.48,53.09-29.15,19.89-21.55,28.02-46.97,24.33-75.89-3.01-23.56-13.34-43.72-31.44-59.3C195.95,8.1,179.31-1.29,158.5,.14c-3.23,.22-6.5,.03-11.36,.03-8.34,.79-18.47-1.54-28.29,2.01-16.32,5.89-30.33,15.01-41.75,28.19-13.65,15.75-21.53,34.03-22.74,54.65-1.9,32.48,9.53,59.81,34.94,80.49ZM148.3,24.61c40.22-.02,68.35,32.62,67.47,66.85,1.06,36.21-28.35,67.84-67.74,68.17-36.35,.3-67.11-30.96-66.85-67.91,.26-36.12,28.86-67.09,67.11-67.1Z"/></svg>