<?xml version="1.0" encoding="UTF-8"?><svg id="a" xmlns="http://www.w3.org/2000/svg" viewBox="0 0 368.39 369"><defs><style>.b{fill:#fff;}</style></defs><path class="b" d="M13.78,369h-5.75c-9.89-5.97-10.62-12.59-2.28-20.94,22.63-22.68,45.25-45.35,67.91-68,.92-.92,2.15-1.54,3.86-2.73-3.54-3.25-6.43-5.62-8.98-8.31-26.57-28-29.95-70.62-7.31-101.88,6.76-9.34,15.53-17.27,23.72-25.5,4-4.03,9.99-3.6,14.3,.42,4.03,3.76,7.88,7.72,11.73,11.68,1.84,1.89,3.5,3.98,5.23,5.97,.72-1.07,.7-1.42,.65-1.76-3.43-22.38,.68-43.17,14.36-61.34,6.02-8,13.53-14.89,20.52-22.13,6.56-6.79,12.14-6.7,18.79-.06,5.15,5.14,10.32,10.25,15.73,15.63,0-.84,.06-1.3,0-1.73-3.85-23.82,1.48-45.37,16.54-64.17,5.3-6.62,11.6-12.46,17.65-18.44C222.69,3.48,225.55,1.88,228.13,0c1.68,0,3.36,0,5.04,0,2.7,2.1,5.61,3.97,8.05,6.34,10.54,10.25,21.33,20.33,27.39,34.58,.88-1.15,1.47-1.88,2.02-2.65,11.95-16.72,27.62-28.38,47.31-34.3,5.89-1.77,12.05-2.67,18.09-3.97h24.46c3.55,1.72,6.2,4.36,7.91,7.93v24.5c-.2,.54-.53,1.07-.59,1.63-2.32,21.72-11.53,40.07-27.15,55.18-3.93,3.81-8.37,7.09-12.58,10.62,3.51,2.08,7.47,3.76,10.59,6.41,8.01,6.8,15.74,13.94,23.37,21.17,2.45,2.32,4.25,5.34,6.35,8.04v5.04c-1.2,1.91-2.13,4.08-3.66,5.67-5.23,5.45-10.53,10.86-16.05,16-12.95,12.07-28.25,19.34-45.9,20.86-7.89,.68-15.9,.11-23.47,.11,5.04,5.13,10.59,10.71,16.08,16.36,4.79,4.93,4.92,11.15,.18,16.02-5.43,5.59-10.86,11.21-16.61,16.47-14.63,13.38-31.9,20.54-51.76,20.99-5.87,.13-11.76-.48-17.66-.74,5.46,5.54,10.96,11.03,16.36,16.61,5.12,5.29,5.13,11.23-.04,16.53-5.11,5.23-10.25,10.45-15.58,15.46-28.9,27.15-72.84,29.26-104.08,4.9-5.09-3.96-9.64-8.61-15.11-13.55-.66,.94-1.28,2.17-2.2,3.09-22.18,22.27-44.36,44.54-66.62,66.73-2.58,2.57-5.65,4.65-8.49,6.95ZM161.01,192.03c33.8-27.4,30.22-72.82-.1-96.03-31.77,26.45-31.4,69.73,.1,96.03Zm69.44-69.44c32.57-26.82,31.18-70.88,.11-96.04-30.22,23.76-33.64,68.03-.11,96.04Zm-123.04,154.58c26.62,31.89,70.35,31.86,95.95-.08-26.97-32.68-70.76-31.17-95.95,.08ZM246.16,138.14c26.3,32.97,71.55,31.04,95.75-.11-26.4-31.8-70.06-31.75-95.75,.11Zm-69.43,69.65c28.75,34.28,73.04,29.14,95.83-.24-25.82-31.77-70.81-31.74-95.83,.24Zm-84.93-42.49c-34.62,29.01-29.08,73.5,.19,96.13,31.95-26.67,31.39-69.92-.19-96.13Zm184.51-72.88c43.34,1.87,73.59-37.07,69.94-70.66-41.71-1.61-72.6,34.58-69.94,70.66Zm-71.21,36.14c2.37,12.05,1.73,23.85-1.05,36.14,12.27-2.95,24.02-3.32,35.86-1.2-11.65-11.69-23.1-23.19-34.81-34.94Zm-69.16,69.96c2.06,11.88,1.6,23.69-1.29,35.72,12.11-3.06,23.81-3.34,35.61-1.35-11.5-11.52-22.83-22.86-34.32-34.37Z"/></svg>