<?xml version="1.0" encoding="UTF-8"?><svg id="a" xmlns="http://www.w3.org/2000/svg" viewBox="0 0 363.52 364.26"><defs><style>.b{fill:#fff;}</style></defs><path class="b" d="M363.52,115.25v12.09c-.23,.77-.55,1.53-.68,2.32-1.91,11.27-6.98,20.79-15.52,28.42-.77,.69-1.51,1.41-2.27,2.11,20.47,21.14,16.44,48.56-.64,67.36-5.65,6.21-12.32,11.01-19.63,15.05-23.94,13.21-47.65,26.79-69.07,43.97-9.63,7.73-18.7,16.04-25.77,26.3-3.32,4.82-5.58,9.93-6.4,15.91-2.33,16.95-14.41,29.95-31.02,34.1-1.93,.48-3.88,.92-5.81,1.38h-9.94c-.9-.24-1.79-.55-2.7-.7-17.78-3.11-31.37-16.24-33.99-34.05-1.12-7.65-4.36-13.88-8.82-19.76-8.54-11.24-19.26-20.19-30.45-28.59-19.82-14.88-41.31-27.1-62.94-39.05-8.07-4.46-15.28-9.93-21.03-17.17-10.52-13.27-15.08-28.03-10.45-44.83,2.11-7.68,6.51-14.09,11.99-19.77C-11.24,136.73-3.54,87.92,30.56,74.61c-6.33-30.56,14.61-53.9,34.48-59.61,22.54-6.48,50.15,3.57,60.97,29.98,2.16-1.34,5.91,1.55,6.78-3.44,3.23-18.43,13.84-31.03,31.06-37.96C167.97,1.92,172.46,1.17,176.77,0c3.79,0,7.57,0,11.36,0,.88,.26,1.75,.59,2.64,.75,19.86,3.53,36.38,20.02,39.83,39.91,.37,2.14,.51,3.66,3.32,3.94,2.74,.28,4.1-.2,5.31-2.92,8.02-18.01,28.32-30.08,47.85-28.72,29.95,2.09,51.09,29.16,45.96,58.93-.36,2.07,0,3.09,2.08,4.01,12.81,5.73,21.17,15.56,25.62,28.78,1.16,3.44,1.87,7.03,2.78,10.55ZM78.58,165.27c.13,8.96,4.67,19.03,12.25,27.82,13.3,15.44,26.27,31.14,37.12,48.47,15.57,24.86,25.31,51.48,25.48,81.25,.09,15.25,13.08,27.38,28.4,27.34,15.31-.04,28.12-12.19,28.22-27.53,.19-26.8,8.1-51.24,21.37-74.21,11.38-19.7,25.61-37.25,40.44-54.36,5.42-6.26,9.51-13.24,11.71-21.29,5.27-19.36-3.5-35.47-22.59-41.44-.9-.28-1.83-.49-2.71-.82-4.86-1.82-6.42-7.17-3.29-11.29,.64-.85,1.41-1.6,2.08-2.42,9.25-11.32,10.78-26.4,3.99-39.31-6.57-12.51-20.15-20.11-33.64-18.84-7.54,.71-10.1-1.64-10.2-9.33-.23-18.89-15.28-34.29-34.16-34.97-20.26-.73-36.61,15.04-36.82,35.5-.07,6.52-3.17,9.61-8.96,8.91-21.54-2.58-40.86,16.39-38.99,38.15,.72,8.38,4.04,15.44,9.6,21.65,4.12,4.6,2.34,10.45-3.53,12.25-1.69,.52-3.42,.94-5.08,1.56-13.18,4.96-20.74,15.96-20.71,32.92Zm194.3-45.99c5.67,4.83,11.81,8.73,16.23,14.06,11.82,14.28,12.34,30.66,6.76,47.65-3.91,11.91-12.06,21.03-20,30.32-14.49,16.96-28.04,34.63-37.68,54.9-3.82,8.04-6.79,16.49-10.48,25.59,9.21-7.69,17.22-14.9,25.76-21.41,20.48-15.6,42.96-28.02,65.19-40.85,6.04-3.49,11.88-7.99,16.48-13.21,14.56-16.51,12.51-37.27-4.92-49.74-5.71-4.09-5.84-11.2,1.08-14.73,13.06-6.65,19.65-20.51,17.91-35.06-1.76-14.7-11.36-25.98-25.54-30.01-6.79-1.93-8.35-5.2-6.09-11.95,4.68-14.01,1.8-26.63-8.38-37.05-10.07-10.3-22.54-13.05-36.23-8.54-10,3.29-17.26,9.85-21.41,19.72,26.2,13.22,35.39,47.14,21.33,70.33ZM111.99,49.04c-.66-1.35-1.17-2.53-1.79-3.65-9.09-16.21-29.17-22.64-46.07-14.76-16.32,7.61-24.41,27.31-18.22,44.38,2.36,6.5,.68,9.83-5.9,11.74-14.28,4.13-24.26,15.68-25.79,29.84-1.62,15.12,5.16,28.3,18.34,35.65,6.92,3.85,7.23,9.37,.75,14.06-6.53,4.73-11.51,10.63-13.44,18.6-2.92,12.04,.93,22.38,8.43,31.71,5.79,7.2,13.66,11.54,21.53,15.93,24.28,13.56,48.29,27.57,69.82,45.38,5.14,4.25,9.96,8.88,15.32,13.69-3.64-13.61-9.27-25.8-16.07-37.48-11.03-18.93-24.99-35.65-39.22-52.17-6.28-7.28-10.79-15.53-13.28-24.84-6.25-23.37,2.16-46.2,23.86-56.32,.29-.13,.47-.49,.69-.73-14.86-24.89-4.34-58.29,21.05-71.03Z"/><path class="b" d="M174.64,205.83v-3.79c0-20.51-.04-41.01,.06-61.52,.01-2.26-.72-3.68-2.41-5.09-11.14-9.37-22.21-18.84-33.28-28.3-4-3.42-4.75-7.51-2.07-10.81,2.81-3.46,7.15-3.5,11.23-.04,7.85,6.66,15.69,13.35,23.53,20.02,.78,.66,1.6,1.27,2.93,2.32,0-1.86,0-3.1,0-4.35,0-19.91,0-39.83,0-59.74,0-1.18-.06-2.38,.09-3.55,.49-3.78,3.26-6.2,6.98-6.21,3.73,0,6.55,2.38,7.01,6.17,.23,1.87,.11,3.79,.11,5.68,0,19.2,0,38.41,0,57.61,0,1.26,0,2.51,0,4.56,3.52-2.98,6.47-5.46,9.4-7.95,5.77-4.91,11.5-9.86,17.3-14.74,3.91-3.29,8.22-3.17,10.96,.18,2.63,3.21,2.01,7.41-1.72,10.6-11.06,9.47-22.12,18.94-33.28,28.3-1.88,1.58-2.73,3.13-2.72,5.66,.11,20.27,.06,40.54,.06,60.81v4.2c1.97-1.64,3.39-2.8,4.79-3.98,14.06-11.97,28.11-23.96,42.19-35.91,3.17-2.69,6.18-2.95,9.09-1.04,2.64,1.74,4.04,5.14,2.72,8.09-.82,1.85-2.37,3.51-3.94,4.86-17.44,14.95-34.91,29.85-52.46,44.66-1.82,1.54-2.44,3.1-2.43,5.42,.07,30.23,.05,60.45,.04,90.68,0,1.19,.06,2.38-.05,3.55-.4,4-3.16,6.56-7.01,6.58-3.87,.02-6.66-2.52-7.07-6.51-.12-1.17-.06-2.37-.06-3.55,0-30.23-.03-60.45,.06-90.68,0-2.5-.75-4.08-2.65-5.68-17.46-14.74-34.83-29.58-52.21-44.4-.9-.77-1.83-1.52-2.61-2.4-2.32-2.61-2.4-6.49-.28-9.14,2.27-2.84,6.07-3.51,9.24-1.54,1.1,.68,2.07,1.57,3.06,2.42,13.61,11.59,27.22,23.18,40.83,34.77,1.32,1.12,2.66,2.21,4.57,3.8Z"/></svg>